%TF.GenerationSoftware,KiCad,Pcbnew,9.0.6*%
%TF.CreationDate,2026-03-10T16:59:53-07:00*%
%TF.ProjectId,Door_Detective,446f6f72-5f44-4657-9465-63746976652e,rev?*%
%TF.SameCoordinates,Original*%
%TF.FileFunction,Legend,Top*%
%TF.FilePolarity,Positive*%
%FSLAX46Y46*%
G04 Gerber Fmt 4.6, Leading zero omitted, Abs format (unit mm)*
G04 Created by KiCad (PCBNEW 9.0.6) date 2026-03-10 16:59:53*
%MOMM*%
%LPD*%
G01*
G04 APERTURE LIST*
%ADD10C,0.100000*%
%ADD11C,0.150000*%
%ADD12C,0.120000*%
G04 APERTURE END LIST*
D10*
X83994360Y-73896228D02*
X83994360Y-74372419D01*
X83661027Y-73372419D02*
X83994360Y-73896228D01*
X83994360Y-73896228D02*
X84327693Y-73372419D01*
X85089598Y-73705752D02*
X85089598Y-74372419D01*
X84661027Y-73705752D02*
X84661027Y-74229561D01*
X84661027Y-74229561D02*
X84708646Y-74324800D01*
X84708646Y-74324800D02*
X84803884Y-74372419D01*
X84803884Y-74372419D02*
X84946741Y-74372419D01*
X84946741Y-74372419D02*
X85041979Y-74324800D01*
X85041979Y-74324800D02*
X85089598Y-74277180D01*
X85565789Y-73705752D02*
X85565789Y-74372419D01*
X85565789Y-73800990D02*
X85613408Y-73753371D01*
X85613408Y-73753371D02*
X85708646Y-73705752D01*
X85708646Y-73705752D02*
X85851503Y-73705752D01*
X85851503Y-73705752D02*
X85946741Y-73753371D01*
X85946741Y-73753371D02*
X85994360Y-73848609D01*
X85994360Y-73848609D02*
X85994360Y-74372419D01*
X86899122Y-74372419D02*
X86899122Y-73848609D01*
X86899122Y-73848609D02*
X86851503Y-73753371D01*
X86851503Y-73753371D02*
X86756265Y-73705752D01*
X86756265Y-73705752D02*
X86565789Y-73705752D01*
X86565789Y-73705752D02*
X86470551Y-73753371D01*
X86899122Y-74324800D02*
X86803884Y-74372419D01*
X86803884Y-74372419D02*
X86565789Y-74372419D01*
X86565789Y-74372419D02*
X86470551Y-74324800D01*
X86470551Y-74324800D02*
X86422932Y-74229561D01*
X86422932Y-74229561D02*
X86422932Y-74134323D01*
X86422932Y-74134323D02*
X86470551Y-74039085D01*
X86470551Y-74039085D02*
X86565789Y-73991466D01*
X86565789Y-73991466D02*
X86803884Y-73991466D01*
X86803884Y-73991466D02*
X86899122Y-73943847D01*
X88041980Y-73372419D02*
X88708646Y-74372419D01*
X88708646Y-73372419D02*
X88041980Y-74372419D01*
X89089599Y-74372419D02*
X89089599Y-73705752D01*
X89089599Y-73372419D02*
X89041980Y-73420038D01*
X89041980Y-73420038D02*
X89089599Y-73467657D01*
X89089599Y-73467657D02*
X89137218Y-73420038D01*
X89137218Y-73420038D02*
X89089599Y-73372419D01*
X89089599Y-73372419D02*
X89089599Y-73467657D01*
X89708646Y-74372419D02*
X89613408Y-74324800D01*
X89613408Y-74324800D02*
X89565789Y-74277180D01*
X89565789Y-74277180D02*
X89518170Y-74181942D01*
X89518170Y-74181942D02*
X89518170Y-73896228D01*
X89518170Y-73896228D02*
X89565789Y-73800990D01*
X89565789Y-73800990D02*
X89613408Y-73753371D01*
X89613408Y-73753371D02*
X89708646Y-73705752D01*
X89708646Y-73705752D02*
X89851503Y-73705752D01*
X89851503Y-73705752D02*
X89946741Y-73753371D01*
X89946741Y-73753371D02*
X89994360Y-73800990D01*
X89994360Y-73800990D02*
X90041979Y-73896228D01*
X90041979Y-73896228D02*
X90041979Y-74181942D01*
X90041979Y-74181942D02*
X89994360Y-74277180D01*
X89994360Y-74277180D02*
X89946741Y-74324800D01*
X89946741Y-74324800D02*
X89851503Y-74372419D01*
X89851503Y-74372419D02*
X89708646Y-74372419D01*
X90470551Y-73705752D02*
X90470551Y-74372419D01*
X90470551Y-73800990D02*
X90518170Y-73753371D01*
X90518170Y-73753371D02*
X90613408Y-73705752D01*
X90613408Y-73705752D02*
X90756265Y-73705752D01*
X90756265Y-73705752D02*
X90851503Y-73753371D01*
X90851503Y-73753371D02*
X90899122Y-73848609D01*
X90899122Y-73848609D02*
X90899122Y-74372419D01*
X91803884Y-73705752D02*
X91803884Y-74515276D01*
X91803884Y-74515276D02*
X91756265Y-74610514D01*
X91756265Y-74610514D02*
X91708646Y-74658133D01*
X91708646Y-74658133D02*
X91613408Y-74705752D01*
X91613408Y-74705752D02*
X91470551Y-74705752D01*
X91470551Y-74705752D02*
X91375313Y-74658133D01*
X91803884Y-74324800D02*
X91708646Y-74372419D01*
X91708646Y-74372419D02*
X91518170Y-74372419D01*
X91518170Y-74372419D02*
X91422932Y-74324800D01*
X91422932Y-74324800D02*
X91375313Y-74277180D01*
X91375313Y-74277180D02*
X91327694Y-74181942D01*
X91327694Y-74181942D02*
X91327694Y-73896228D01*
X91327694Y-73896228D02*
X91375313Y-73800990D01*
X91375313Y-73800990D02*
X91422932Y-73753371D01*
X91422932Y-73753371D02*
X91518170Y-73705752D01*
X91518170Y-73705752D02*
X91708646Y-73705752D01*
X91708646Y-73705752D02*
X91803884Y-73753371D01*
X92994361Y-74324800D02*
X93137218Y-74372419D01*
X93137218Y-74372419D02*
X93375313Y-74372419D01*
X93375313Y-74372419D02*
X93470551Y-74324800D01*
X93470551Y-74324800D02*
X93518170Y-74277180D01*
X93518170Y-74277180D02*
X93565789Y-74181942D01*
X93565789Y-74181942D02*
X93565789Y-74086704D01*
X93565789Y-74086704D02*
X93518170Y-73991466D01*
X93518170Y-73991466D02*
X93470551Y-73943847D01*
X93470551Y-73943847D02*
X93375313Y-73896228D01*
X93375313Y-73896228D02*
X93184837Y-73848609D01*
X93184837Y-73848609D02*
X93089599Y-73800990D01*
X93089599Y-73800990D02*
X93041980Y-73753371D01*
X93041980Y-73753371D02*
X92994361Y-73658133D01*
X92994361Y-73658133D02*
X92994361Y-73562895D01*
X92994361Y-73562895D02*
X93041980Y-73467657D01*
X93041980Y-73467657D02*
X93089599Y-73420038D01*
X93089599Y-73420038D02*
X93184837Y-73372419D01*
X93184837Y-73372419D02*
X93422932Y-73372419D01*
X93422932Y-73372419D02*
X93565789Y-73420038D01*
X94375313Y-74324800D02*
X94280075Y-74372419D01*
X94280075Y-74372419D02*
X94089599Y-74372419D01*
X94089599Y-74372419D02*
X93994361Y-74324800D01*
X93994361Y-74324800D02*
X93946742Y-74229561D01*
X93946742Y-74229561D02*
X93946742Y-73848609D01*
X93946742Y-73848609D02*
X93994361Y-73753371D01*
X93994361Y-73753371D02*
X94089599Y-73705752D01*
X94089599Y-73705752D02*
X94280075Y-73705752D01*
X94280075Y-73705752D02*
X94375313Y-73753371D01*
X94375313Y-73753371D02*
X94422932Y-73848609D01*
X94422932Y-73848609D02*
X94422932Y-73943847D01*
X94422932Y-73943847D02*
X93946742Y-74039085D01*
X94851504Y-73705752D02*
X94851504Y-74372419D01*
X94851504Y-73800990D02*
X94899123Y-73753371D01*
X94899123Y-73753371D02*
X94994361Y-73705752D01*
X94994361Y-73705752D02*
X95137218Y-73705752D01*
X95137218Y-73705752D02*
X95232456Y-73753371D01*
X95232456Y-73753371D02*
X95280075Y-73848609D01*
X95280075Y-73848609D02*
X95280075Y-74372419D01*
X95708647Y-74324800D02*
X95803885Y-74372419D01*
X95803885Y-74372419D02*
X95994361Y-74372419D01*
X95994361Y-74372419D02*
X96089599Y-74324800D01*
X96089599Y-74324800D02*
X96137218Y-74229561D01*
X96137218Y-74229561D02*
X96137218Y-74181942D01*
X96137218Y-74181942D02*
X96089599Y-74086704D01*
X96089599Y-74086704D02*
X95994361Y-74039085D01*
X95994361Y-74039085D02*
X95851504Y-74039085D01*
X95851504Y-74039085D02*
X95756266Y-73991466D01*
X95756266Y-73991466D02*
X95708647Y-73896228D01*
X95708647Y-73896228D02*
X95708647Y-73848609D01*
X95708647Y-73848609D02*
X95756266Y-73753371D01*
X95756266Y-73753371D02*
X95851504Y-73705752D01*
X95851504Y-73705752D02*
X95994361Y-73705752D01*
X95994361Y-73705752D02*
X96089599Y-73753371D01*
X96565790Y-74372419D02*
X96565790Y-73705752D01*
X96565790Y-73372419D02*
X96518171Y-73420038D01*
X96518171Y-73420038D02*
X96565790Y-73467657D01*
X96565790Y-73467657D02*
X96613409Y-73420038D01*
X96613409Y-73420038D02*
X96565790Y-73372419D01*
X96565790Y-73372419D02*
X96565790Y-73467657D01*
X97041980Y-73705752D02*
X97041980Y-74372419D01*
X97041980Y-73800990D02*
X97089599Y-73753371D01*
X97089599Y-73753371D02*
X97184837Y-73705752D01*
X97184837Y-73705752D02*
X97327694Y-73705752D01*
X97327694Y-73705752D02*
X97422932Y-73753371D01*
X97422932Y-73753371D02*
X97470551Y-73848609D01*
X97470551Y-73848609D02*
X97470551Y-74372419D01*
X98375313Y-73705752D02*
X98375313Y-74515276D01*
X98375313Y-74515276D02*
X98327694Y-74610514D01*
X98327694Y-74610514D02*
X98280075Y-74658133D01*
X98280075Y-74658133D02*
X98184837Y-74705752D01*
X98184837Y-74705752D02*
X98041980Y-74705752D01*
X98041980Y-74705752D02*
X97946742Y-74658133D01*
X98375313Y-74324800D02*
X98280075Y-74372419D01*
X98280075Y-74372419D02*
X98089599Y-74372419D01*
X98089599Y-74372419D02*
X97994361Y-74324800D01*
X97994361Y-74324800D02*
X97946742Y-74277180D01*
X97946742Y-74277180D02*
X97899123Y-74181942D01*
X97899123Y-74181942D02*
X97899123Y-73896228D01*
X97899123Y-73896228D02*
X97946742Y-73800990D01*
X97946742Y-73800990D02*
X97994361Y-73753371D01*
X97994361Y-73753371D02*
X98089599Y-73705752D01*
X98089599Y-73705752D02*
X98280075Y-73705752D01*
X98280075Y-73705752D02*
X98375313Y-73753371D01*
X99518171Y-73705752D02*
X99756266Y-74372419D01*
X99756266Y-74372419D02*
X99994361Y-73705752D01*
X100280076Y-73372419D02*
X100899123Y-73372419D01*
X100899123Y-73372419D02*
X100565790Y-73753371D01*
X100565790Y-73753371D02*
X100708647Y-73753371D01*
X100708647Y-73753371D02*
X100803885Y-73800990D01*
X100803885Y-73800990D02*
X100851504Y-73848609D01*
X100851504Y-73848609D02*
X100899123Y-73943847D01*
X100899123Y-73943847D02*
X100899123Y-74181942D01*
X100899123Y-74181942D02*
X100851504Y-74277180D01*
X100851504Y-74277180D02*
X100803885Y-74324800D01*
X100803885Y-74324800D02*
X100708647Y-74372419D01*
X100708647Y-74372419D02*
X100422933Y-74372419D01*
X100422933Y-74372419D02*
X100327695Y-74324800D01*
X100327695Y-74324800D02*
X100280076Y-74277180D01*
X101327695Y-74277180D02*
X101375314Y-74324800D01*
X101375314Y-74324800D02*
X101327695Y-74372419D01*
X101327695Y-74372419D02*
X101280076Y-74324800D01*
X101280076Y-74324800D02*
X101327695Y-74277180D01*
X101327695Y-74277180D02*
X101327695Y-74372419D01*
X101994361Y-73372419D02*
X102089599Y-73372419D01*
X102089599Y-73372419D02*
X102184837Y-73420038D01*
X102184837Y-73420038D02*
X102232456Y-73467657D01*
X102232456Y-73467657D02*
X102280075Y-73562895D01*
X102280075Y-73562895D02*
X102327694Y-73753371D01*
X102327694Y-73753371D02*
X102327694Y-73991466D01*
X102327694Y-73991466D02*
X102280075Y-74181942D01*
X102280075Y-74181942D02*
X102232456Y-74277180D01*
X102232456Y-74277180D02*
X102184837Y-74324800D01*
X102184837Y-74324800D02*
X102089599Y-74372419D01*
X102089599Y-74372419D02*
X101994361Y-74372419D01*
X101994361Y-74372419D02*
X101899123Y-74324800D01*
X101899123Y-74324800D02*
X101851504Y-74277180D01*
X101851504Y-74277180D02*
X101803885Y-74181942D01*
X101803885Y-74181942D02*
X101756266Y-73991466D01*
X101756266Y-73991466D02*
X101756266Y-73753371D01*
X101756266Y-73753371D02*
X101803885Y-73562895D01*
X101803885Y-73562895D02*
X101851504Y-73467657D01*
X101851504Y-73467657D02*
X101899123Y-73420038D01*
X101899123Y-73420038D02*
X101994361Y-73372419D01*
D11*
X118566666Y-76834819D02*
X118566666Y-77549104D01*
X118566666Y-77549104D02*
X118519047Y-77691961D01*
X118519047Y-77691961D02*
X118423809Y-77787200D01*
X118423809Y-77787200D02*
X118280952Y-77834819D01*
X118280952Y-77834819D02*
X118185714Y-77834819D01*
X118995238Y-76930057D02*
X119042857Y-76882438D01*
X119042857Y-76882438D02*
X119138095Y-76834819D01*
X119138095Y-76834819D02*
X119376190Y-76834819D01*
X119376190Y-76834819D02*
X119471428Y-76882438D01*
X119471428Y-76882438D02*
X119519047Y-76930057D01*
X119519047Y-76930057D02*
X119566666Y-77025295D01*
X119566666Y-77025295D02*
X119566666Y-77120533D01*
X119566666Y-77120533D02*
X119519047Y-77263390D01*
X119519047Y-77263390D02*
X118947619Y-77834819D01*
X118947619Y-77834819D02*
X119566666Y-77834819D01*
X128214285Y-103051009D02*
X128357142Y-103098628D01*
X128357142Y-103098628D02*
X128404761Y-103146247D01*
X128404761Y-103146247D02*
X128452380Y-103241485D01*
X128452380Y-103241485D02*
X128452380Y-103384342D01*
X128452380Y-103384342D02*
X128404761Y-103479580D01*
X128404761Y-103479580D02*
X128357142Y-103527200D01*
X128357142Y-103527200D02*
X128261904Y-103574819D01*
X128261904Y-103574819D02*
X127880952Y-103574819D01*
X127880952Y-103574819D02*
X127880952Y-102574819D01*
X127880952Y-102574819D02*
X128214285Y-102574819D01*
X128214285Y-102574819D02*
X128309523Y-102622438D01*
X128309523Y-102622438D02*
X128357142Y-102670057D01*
X128357142Y-102670057D02*
X128404761Y-102765295D01*
X128404761Y-102765295D02*
X128404761Y-102860533D01*
X128404761Y-102860533D02*
X128357142Y-102955771D01*
X128357142Y-102955771D02*
X128309523Y-103003390D01*
X128309523Y-103003390D02*
X128214285Y-103051009D01*
X128214285Y-103051009D02*
X127880952Y-103051009D01*
X128738095Y-102574819D02*
X129309523Y-102574819D01*
X129023809Y-103574819D02*
X129023809Y-102574819D01*
X130166666Y-103574819D02*
X129595238Y-103574819D01*
X129880952Y-103574819D02*
X129880952Y-102574819D01*
X129880952Y-102574819D02*
X129785714Y-102717676D01*
X129785714Y-102717676D02*
X129690476Y-102812914D01*
X129690476Y-102812914D02*
X129595238Y-102860533D01*
X93166666Y-76834819D02*
X93166666Y-77549104D01*
X93166666Y-77549104D02*
X93119047Y-77691961D01*
X93119047Y-77691961D02*
X93023809Y-77787200D01*
X93023809Y-77787200D02*
X92880952Y-77834819D01*
X92880952Y-77834819D02*
X92785714Y-77834819D01*
X94166666Y-77834819D02*
X93595238Y-77834819D01*
X93880952Y-77834819D02*
X93880952Y-76834819D01*
X93880952Y-76834819D02*
X93785714Y-76977676D01*
X93785714Y-76977676D02*
X93690476Y-77072914D01*
X93690476Y-77072914D02*
X93595238Y-77120533D01*
X128238095Y-77074819D02*
X128238095Y-77884342D01*
X128238095Y-77884342D02*
X128285714Y-77979580D01*
X128285714Y-77979580D02*
X128333333Y-78027200D01*
X128333333Y-78027200D02*
X128428571Y-78074819D01*
X128428571Y-78074819D02*
X128619047Y-78074819D01*
X128619047Y-78074819D02*
X128714285Y-78027200D01*
X128714285Y-78027200D02*
X128761904Y-77979580D01*
X128761904Y-77979580D02*
X128809523Y-77884342D01*
X128809523Y-77884342D02*
X128809523Y-77074819D01*
X129190476Y-77074819D02*
X129809523Y-77074819D01*
X129809523Y-77074819D02*
X129476190Y-77455771D01*
X129476190Y-77455771D02*
X129619047Y-77455771D01*
X129619047Y-77455771D02*
X129714285Y-77503390D01*
X129714285Y-77503390D02*
X129761904Y-77551009D01*
X129761904Y-77551009D02*
X129809523Y-77646247D01*
X129809523Y-77646247D02*
X129809523Y-77884342D01*
X129809523Y-77884342D02*
X129761904Y-77979580D01*
X129761904Y-77979580D02*
X129714285Y-78027200D01*
X129714285Y-78027200D02*
X129619047Y-78074819D01*
X129619047Y-78074819D02*
X129333333Y-78074819D01*
X129333333Y-78074819D02*
X129238095Y-78027200D01*
X129238095Y-78027200D02*
X129190476Y-77979580D01*
D12*
%TO.C,J2*%
X117520000Y-78380000D02*
X118900000Y-78380000D01*
X117520000Y-79760000D02*
X117520000Y-78380000D01*
X117520000Y-81030000D02*
X117520000Y-116700000D01*
X117520000Y-81030000D02*
X120280000Y-81030000D01*
X117520000Y-116700000D02*
X120280000Y-116700000D01*
X120280000Y-81030000D02*
X120280000Y-116700000D01*
%TO.C,BT1*%
X127620000Y-104120000D02*
X129000000Y-104120000D01*
X127620000Y-105500000D02*
X127620000Y-104120000D01*
X127620000Y-106770000D02*
X127620000Y-109420000D01*
X127620000Y-106770000D02*
X130380000Y-106770000D01*
X127620000Y-109420000D02*
X130380000Y-109420000D01*
X130380000Y-106770000D02*
X130380000Y-109420000D01*
%TO.C,J1*%
X92120000Y-78380000D02*
X93500000Y-78380000D01*
X92120000Y-79760000D02*
X92120000Y-78380000D01*
X92120000Y-81030000D02*
X92120000Y-116700000D01*
X92120000Y-81030000D02*
X94880000Y-81030000D01*
X92120000Y-116700000D02*
X94880000Y-116700000D01*
X94880000Y-81030000D02*
X94880000Y-116700000D01*
%TO.C,U3*%
X127620000Y-78620000D02*
X129000000Y-78620000D01*
X127620000Y-80000000D02*
X127620000Y-78620000D01*
X127620000Y-81270000D02*
X127620000Y-94080000D01*
X127620000Y-81270000D02*
X130380000Y-81270000D01*
X127620000Y-94080000D02*
X130380000Y-94080000D01*
X130380000Y-81270000D02*
X130380000Y-94080000D01*
%TD*%
M02*
