%TF.GenerationSoftware,KiCad,Pcbnew,9.0.6*%
%TF.CreationDate,2026-03-10T16:59:53-07:00*%
%TF.ProjectId,Door_Detective,446f6f72-5f44-4657-9465-63746976652e,rev?*%
%TF.SameCoordinates,Original*%
%TF.FileFunction,Copper,L2,Bot*%
%TF.FilePolarity,Positive*%
%FSLAX46Y46*%
G04 Gerber Fmt 4.6, Leading zero omitted, Abs format (unit mm)*
G04 Created by KiCad (PCBNEW 9.0.6) date 2026-03-10 16:59:53*
%MOMM*%
%LPD*%
G01*
G04 APERTURE LIST*
G04 Aperture macros list*
%AMRoundRect*
0 Rectangle with rounded corners*
0 $1 Rounding radius*
0 $2 $3 $4 $5 $6 $7 $8 $9 X,Y pos of 4 corners*
0 Add a 4 corners polygon primitive as box body*
4,1,4,$2,$3,$4,$5,$6,$7,$8,$9,$2,$3,0*
0 Add four circle primitives for the rounded corners*
1,1,$1+$1,$2,$3*
1,1,$1+$1,$4,$5*
1,1,$1+$1,$6,$7*
1,1,$1+$1,$8,$9*
0 Add four rect primitives between the rounded corners*
20,1,$1+$1,$2,$3,$4,$5,0*
20,1,$1+$1,$4,$5,$6,$7,0*
20,1,$1+$1,$6,$7,$8,$9,0*
20,1,$1+$1,$8,$9,$2,$3,0*%
G04 Aperture macros list end*
%TA.AperFunction,ComponentPad*%
%ADD10R,1.700000X1.700000*%
%TD*%
%TA.AperFunction,ComponentPad*%
%ADD11C,1.700000*%
%TD*%
%TA.AperFunction,SMDPad,CuDef*%
%ADD12RoundRect,0.250000X0.262500X0.450000X-0.262500X0.450000X-0.262500X-0.450000X0.262500X-0.450000X0*%
%TD*%
%TA.AperFunction,Conductor*%
%ADD13C,0.500000*%
%TD*%
G04 APERTURE END LIST*
D10*
%TO.P,J2,1,Pin_1*%
%TO.N,unconnected-(J2-Pin_1-Pad1)*%
X118900000Y-79760000D03*
D11*
%TO.P,J2,2,Pin_2*%
%TO.N,Net-(J2-Pin_2)*%
X118900000Y-82300000D03*
%TO.P,J2,3,Pin_3*%
%TO.N,unconnected-(J2-Pin_3-Pad3)*%
X118900000Y-84840000D03*
%TO.P,J2,4,Pin_4*%
%TO.N,unconnected-(J2-Pin_4-Pad4)*%
X118900000Y-87380000D03*
%TO.P,J2,5,Pin_5*%
%TO.N,Net-(J2-Pin_5)*%
X118900000Y-89920000D03*
%TO.P,J2,6,Pin_6*%
%TO.N,unconnected-(J2-Pin_6-Pad6)*%
X118900000Y-92460000D03*
%TO.P,J2,7,Pin_7*%
%TO.N,unconnected-(J2-Pin_7-Pad7)*%
X118900000Y-95000000D03*
%TO.P,J2,8,Pin_8*%
%TO.N,unconnected-(J2-Pin_8-Pad8)*%
X118900000Y-97540000D03*
%TO.P,J2,9,Pin_9*%
%TO.N,unconnected-(J2-Pin_9-Pad9)*%
X118900000Y-100080000D03*
%TO.P,J2,10,Pin_10*%
%TO.N,unconnected-(J2-Pin_10-Pad10)*%
X118900000Y-102620000D03*
%TO.P,J2,11,Pin_11*%
%TO.N,unconnected-(J2-Pin_11-Pad11)*%
X118900000Y-105160000D03*
%TO.P,J2,12,Pin_12*%
%TO.N,unconnected-(J2-Pin_12-Pad12)*%
X118900000Y-107700000D03*
%TO.P,J2,13,Pin_13*%
%TO.N,unconnected-(J2-Pin_13-Pad13)*%
X118900000Y-110240000D03*
%TO.P,J2,14,Pin_14*%
%TO.N,GND*%
X118900000Y-112780000D03*
%TO.P,J2,15,Pin_15*%
%TO.N,Net-(J2-Pin_15)*%
X118900000Y-115320000D03*
%TD*%
D10*
%TO.P,BT1,1,+*%
%TO.N,Net-(BT1-+)*%
X129000000Y-105500000D03*
D11*
%TO.P,BT1,2,-*%
%TO.N,GND*%
X129000000Y-108040000D03*
%TD*%
D10*
%TO.P,J1,1,Pin_1*%
%TO.N,unconnected-(J1-Pin_1-Pad1)*%
X93500000Y-79760000D03*
D11*
%TO.P,J1,2,Pin_2*%
%TO.N,unconnected-(J1-Pin_2-Pad2)*%
X93500000Y-82300000D03*
%TO.P,J1,3,Pin_3*%
%TO.N,unconnected-(J1-Pin_3-Pad3)*%
X93500000Y-84840000D03*
%TO.P,J1,4,Pin_4*%
%TO.N,unconnected-(J1-Pin_4-Pad4)*%
X93500000Y-87380000D03*
%TO.P,J1,5,Pin_5*%
%TO.N,unconnected-(J1-Pin_5-Pad5)*%
X93500000Y-89920000D03*
%TO.P,J1,6,Pin_6*%
%TO.N,unconnected-(J1-Pin_6-Pad6)*%
X93500000Y-92460000D03*
%TO.P,J1,7,Pin_7*%
%TO.N,unconnected-(J1-Pin_7-Pad7)*%
X93500000Y-95000000D03*
%TO.P,J1,8,Pin_8*%
%TO.N,unconnected-(J1-Pin_8-Pad8)*%
X93500000Y-97540000D03*
%TO.P,J1,9,Pin_9*%
%TO.N,unconnected-(J1-Pin_9-Pad9)*%
X93500000Y-100080000D03*
%TO.P,J1,10,Pin_10*%
%TO.N,unconnected-(J1-Pin_10-Pad10)*%
X93500000Y-102620000D03*
%TO.P,J1,11,Pin_11*%
%TO.N,unconnected-(J1-Pin_11-Pad11)*%
X93500000Y-105160000D03*
%TO.P,J1,12,Pin_12*%
%TO.N,unconnected-(J1-Pin_12-Pad12)*%
X93500000Y-107700000D03*
%TO.P,J1,13,Pin_13*%
%TO.N,unconnected-(J1-Pin_13-Pad13)*%
X93500000Y-110240000D03*
%TO.P,J1,14,Pin_14*%
%TO.N,GND*%
X93500000Y-112780000D03*
%TO.P,J1,15,Pin_15*%
%TO.N,Net-(BT1-+)*%
X93500000Y-115320000D03*
%TD*%
D10*
%TO.P,U3,1,Pin_1*%
%TO.N,Net-(J2-Pin_15)*%
X129000000Y-80000000D03*
D11*
%TO.P,U3,2,Pin_2*%
%TO.N,unconnected-(U3-Pin_2-Pad2)*%
X129000000Y-82540000D03*
%TO.P,U3,3,Pin_3*%
%TO.N,GND*%
X129000000Y-85080000D03*
%TO.P,U3,4,Pin_4*%
%TO.N,Net-(J2-Pin_2)*%
X129000000Y-87620000D03*
%TO.P,U3,5,Pin_5*%
%TO.N,Net-(J2-Pin_5)*%
X129000000Y-90160000D03*
%TO.P,U3,6,Pin_6*%
%TO.N,unconnected-(U3-Pin_6-Pad6)*%
X129000000Y-92700000D03*
%TD*%
D12*
%TO.P,R2,1*%
%TO.N,Net-(J2-Pin_15)*%
X88000000Y-95500000D03*
%TO.P,R2,2*%
%TO.N,Net-(J2-Pin_2)*%
X86175000Y-95500000D03*
%TD*%
%TO.P,R1,1*%
%TO.N,Net-(J2-Pin_15)*%
X88000000Y-88000000D03*
%TO.P,R1,2*%
%TO.N,Net-(J2-Pin_5)*%
X86175000Y-88000000D03*
%TD*%
D13*
%TO.N,Net-(BT1-+)*%
X127799000Y-106701000D02*
X127799000Y-110378346D01*
X121000000Y-119500000D02*
X97680000Y-119500000D01*
X127799000Y-110378346D02*
X128500000Y-111079346D01*
X128500000Y-112000000D02*
X121000000Y-119500000D01*
X97680000Y-119500000D02*
X93500000Y-115320000D01*
X129000000Y-105500000D02*
X127799000Y-106701000D01*
X128500000Y-111079346D02*
X128500000Y-112000000D01*
%TO.N,GND*%
X130201000Y-104299000D02*
X130201000Y-106839000D01*
X119397471Y-116521000D02*
X97241000Y-116521000D01*
X125500000Y-106598000D02*
X127799000Y-104299000D01*
X132000000Y-107500000D02*
X131460000Y-108040000D01*
X120680000Y-111000000D02*
X118900000Y-112780000D01*
X132000000Y-88080000D02*
X132000000Y-107500000D01*
X125500000Y-111000000D02*
X125500000Y-106598000D01*
X97241000Y-116521000D02*
X93500000Y-112780000D01*
X120101000Y-115817471D02*
X119397471Y-116521000D01*
X118900000Y-112780000D02*
X120101000Y-113981000D01*
X120101000Y-113981000D02*
X120101000Y-115817471D01*
X125500000Y-111000000D02*
X120680000Y-111000000D01*
X130201000Y-106839000D02*
X129000000Y-108040000D01*
X131460000Y-108040000D02*
X129000000Y-108040000D01*
X129000000Y-85080000D02*
X132000000Y-88080000D01*
X127799000Y-104299000D02*
X130201000Y-104299000D01*
%TO.N,Net-(J2-Pin_5)*%
X101617471Y-81099000D02*
X94010601Y-88705870D01*
X127799000Y-78799000D02*
X125499000Y-81099000D01*
X128502529Y-83741000D02*
X129497471Y-83741000D01*
X88518370Y-86949000D02*
X87226000Y-86949000D01*
X128760000Y-89920000D02*
X129000000Y-90160000D01*
X129497471Y-83741000D02*
X130201000Y-83037471D01*
X118900000Y-89920000D02*
X128760000Y-89920000D01*
X90275240Y-88705870D02*
X88518370Y-86949000D01*
X125499000Y-81099000D02*
X101617471Y-81099000D01*
X127799000Y-84444529D02*
X128502529Y-83741000D01*
X127799000Y-88959000D02*
X127799000Y-84444529D01*
X130201000Y-78799000D02*
X127799000Y-78799000D01*
X129000000Y-90160000D02*
X127799000Y-88959000D01*
X130201000Y-83037471D02*
X130201000Y-78799000D01*
X94010601Y-88705870D02*
X90275240Y-88705870D01*
X87226000Y-86949000D02*
X86175000Y-88000000D01*
%TO.N,Net-(J2-Pin_2)*%
X130201000Y-93197471D02*
X129398471Y-94000000D01*
X118900000Y-82300000D02*
X120600000Y-84000000D01*
X129000000Y-87620000D02*
X130201000Y-88821000D01*
X125500000Y-94000000D02*
X123000000Y-91500000D01*
X130201000Y-88821000D02*
X130201000Y-93197471D01*
X107539000Y-93661000D02*
X88014000Y-93661000D01*
X88014000Y-93661000D02*
X86175000Y-95500000D01*
X129398471Y-94000000D02*
X125500000Y-94000000D01*
X118900000Y-82300000D02*
X107539000Y-93661000D01*
X120600000Y-84000000D02*
X123000000Y-84000000D01*
%TO.N,Net-(J2-Pin_15)*%
X118900000Y-115320000D02*
X105250000Y-101670000D01*
X85311500Y-96205870D02*
X85656630Y-96551000D01*
X113330942Y-88719000D02*
X106049942Y-96000000D01*
X88701000Y-96201000D02*
X104799001Y-96201000D01*
X106049942Y-96000000D02*
X105000001Y-96000000D01*
X105250000Y-101670000D02*
X105250000Y-96000000D01*
X105000001Y-96000000D02*
X104799001Y-96201000D01*
X86949000Y-96551000D02*
X88000000Y-95500000D01*
X88000000Y-88000000D02*
X85311500Y-90688500D01*
X88000000Y-95500000D02*
X88701000Y-96201000D01*
X85656630Y-96551000D02*
X86949000Y-96551000D01*
X120281000Y-88719000D02*
X113330942Y-88719000D01*
X85311500Y-90688500D02*
X85311500Y-96205870D01*
X129000000Y-80000000D02*
X120281000Y-88719000D01*
%TD*%
%TA.AperFunction,Conductor*%
%TO.N,GND*%
G36*
X117525872Y-89489185D02*
G01*
X117571627Y-89541989D01*
X117581571Y-89611147D01*
X117581306Y-89612898D01*
X117549500Y-89813713D01*
X117549500Y-90026286D01*
X117582753Y-90236239D01*
X117648444Y-90438414D01*
X117744951Y-90627820D01*
X117869890Y-90799786D01*
X118020213Y-90950109D01*
X118192182Y-91075050D01*
X118200946Y-91079516D01*
X118251742Y-91127491D01*
X118268536Y-91195312D01*
X118245998Y-91261447D01*
X118200946Y-91300484D01*
X118192182Y-91304949D01*
X118020213Y-91429890D01*
X117869890Y-91580213D01*
X117744951Y-91752179D01*
X117648444Y-91941585D01*
X117582753Y-92143760D01*
X117549500Y-92353713D01*
X117549500Y-92566286D01*
X117581583Y-92768853D01*
X117582754Y-92776243D01*
X117646515Y-92972479D01*
X117648444Y-92978414D01*
X117744951Y-93167820D01*
X117869890Y-93339786D01*
X118020213Y-93490109D01*
X118192182Y-93615050D01*
X118200946Y-93619516D01*
X118251742Y-93667491D01*
X118268536Y-93735312D01*
X118245998Y-93801447D01*
X118200946Y-93840484D01*
X118192182Y-93844949D01*
X118020213Y-93969890D01*
X117869890Y-94120213D01*
X117744951Y-94292179D01*
X117648444Y-94481585D01*
X117582753Y-94683760D01*
X117549500Y-94893713D01*
X117549500Y-95106286D01*
X117581583Y-95308853D01*
X117582754Y-95316243D01*
X117615506Y-95417044D01*
X117648444Y-95518414D01*
X117744951Y-95707820D01*
X117869890Y-95879786D01*
X118020213Y-96030109D01*
X118192182Y-96155050D01*
X118200946Y-96159516D01*
X118251742Y-96207491D01*
X118268536Y-96275312D01*
X118245998Y-96341447D01*
X118200946Y-96380484D01*
X118192182Y-96384949D01*
X118020213Y-96509890D01*
X117869890Y-96660213D01*
X117744951Y-96832179D01*
X117648444Y-97021585D01*
X117582753Y-97223760D01*
X117549500Y-97433713D01*
X117549500Y-97646286D01*
X117582753Y-97856239D01*
X117648444Y-98058414D01*
X117744951Y-98247820D01*
X117869890Y-98419786D01*
X118020213Y-98570109D01*
X118192182Y-98695050D01*
X118200946Y-98699516D01*
X118251742Y-98747491D01*
X118268536Y-98815312D01*
X118245998Y-98881447D01*
X118200946Y-98920484D01*
X118192182Y-98924949D01*
X118020213Y-99049890D01*
X117869890Y-99200213D01*
X117744951Y-99372179D01*
X117648444Y-99561585D01*
X117582753Y-99763760D01*
X117549500Y-99973713D01*
X117549500Y-100186286D01*
X117582753Y-100396239D01*
X117648444Y-100598414D01*
X117744951Y-100787820D01*
X117869890Y-100959786D01*
X118020213Y-101110109D01*
X118192182Y-101235050D01*
X118200946Y-101239516D01*
X118251742Y-101287491D01*
X118268536Y-101355312D01*
X118245998Y-101421447D01*
X118200946Y-101460484D01*
X118192182Y-101464949D01*
X118020213Y-101589890D01*
X117869890Y-101740213D01*
X117744951Y-101912179D01*
X117648444Y-102101585D01*
X117582753Y-102303760D01*
X117549500Y-102513713D01*
X117549500Y-102726286D01*
X117582753Y-102936239D01*
X117648444Y-103138414D01*
X117744951Y-103327820D01*
X117869890Y-103499786D01*
X118020213Y-103650109D01*
X118192182Y-103775050D01*
X118200946Y-103779516D01*
X118251742Y-103827491D01*
X118268536Y-103895312D01*
X118245998Y-103961447D01*
X118200946Y-104000484D01*
X118192182Y-104004949D01*
X118020213Y-104129890D01*
X117869890Y-104280213D01*
X117744951Y-104452179D01*
X117648444Y-104641585D01*
X117582753Y-104843760D01*
X117549500Y-105053713D01*
X117549500Y-105266286D01*
X117582753Y-105476239D01*
X117648444Y-105678414D01*
X117744951Y-105867820D01*
X117869890Y-106039786D01*
X118020213Y-106190109D01*
X118192182Y-106315050D01*
X118200946Y-106319516D01*
X118251742Y-106367491D01*
X118268536Y-106435312D01*
X118245998Y-106501447D01*
X118200946Y-106540484D01*
X118192182Y-106544949D01*
X118020213Y-106669890D01*
X117869890Y-106820213D01*
X117744951Y-106992179D01*
X117648444Y-107181585D01*
X117582753Y-107383760D01*
X117560893Y-107521782D01*
X117549500Y-107593713D01*
X117549500Y-107806287D01*
X117582754Y-108016243D01*
X117633831Y-108173442D01*
X117648444Y-108218414D01*
X117744951Y-108407820D01*
X117869890Y-108579786D01*
X118020213Y-108730109D01*
X118192182Y-108855050D01*
X118200946Y-108859516D01*
X118251742Y-108907491D01*
X118268536Y-108975312D01*
X118245998Y-109041447D01*
X118200946Y-109080484D01*
X118192182Y-109084949D01*
X118020213Y-109209890D01*
X117869890Y-109360213D01*
X117744951Y-109532179D01*
X117648444Y-109721585D01*
X117582753Y-109923760D01*
X117549500Y-110133713D01*
X117549500Y-110346286D01*
X117566285Y-110452266D01*
X117582754Y-110556243D01*
X117637213Y-110723851D01*
X117648443Y-110758412D01*
X117744951Y-110947820D01*
X117869890Y-111119786D01*
X118020213Y-111270109D01*
X118192179Y-111395048D01*
X118192181Y-111395049D01*
X118192184Y-111395051D01*
X118201493Y-111399794D01*
X118252290Y-111447766D01*
X118269087Y-111515587D01*
X118246552Y-111581722D01*
X118201505Y-111620760D01*
X118192446Y-111625376D01*
X118192440Y-111625380D01*
X118138282Y-111664727D01*
X118138282Y-111664728D01*
X118770591Y-112297037D01*
X118707007Y-112314075D01*
X118592993Y-112379901D01*
X118499901Y-112472993D01*
X118434075Y-112587007D01*
X118417037Y-112650591D01*
X117784728Y-112018282D01*
X117784727Y-112018282D01*
X117745380Y-112072439D01*
X117648904Y-112261782D01*
X117583242Y-112463869D01*
X117583242Y-112463872D01*
X117555955Y-112636151D01*
X117526025Y-112699286D01*
X117466714Y-112736217D01*
X117396851Y-112735219D01*
X117345801Y-112704434D01*
X112281268Y-107639901D01*
X106036819Y-101395451D01*
X106003334Y-101334128D01*
X106000500Y-101307770D01*
X106000500Y-96874500D01*
X106020185Y-96807461D01*
X106072989Y-96761706D01*
X106117882Y-96751939D01*
X106117800Y-96751097D01*
X106123862Y-96750500D01*
X106221404Y-96731096D01*
X106268855Y-96721658D01*
X106405437Y-96665084D01*
X106465550Y-96624918D01*
X106465550Y-96624917D01*
X106465552Y-96624917D01*
X106528358Y-96582952D01*
X113605491Y-89505819D01*
X113666814Y-89472334D01*
X113693172Y-89469500D01*
X117458833Y-89469500D01*
X117525872Y-89489185D01*
G37*
%TD.AperFunction*%
%TA.AperFunction,Conductor*%
G36*
X148442539Y-72520185D02*
G01*
X148488294Y-72572989D01*
X148499500Y-72624500D01*
X148499500Y-121875500D01*
X148479815Y-121942539D01*
X148427011Y-121988294D01*
X148375500Y-121999500D01*
X80124500Y-121999500D01*
X80057461Y-121979815D01*
X80011706Y-121927011D01*
X80000500Y-121875500D01*
X80000500Y-96279790D01*
X84560999Y-96279790D01*
X84589840Y-96424777D01*
X84589843Y-96424787D01*
X84646412Y-96561358D01*
X84646421Y-96561374D01*
X84660837Y-96582948D01*
X84660838Y-96582952D01*
X84660839Y-96582952D01*
X84728546Y-96684284D01*
X84728552Y-96684291D01*
X85073679Y-97029416D01*
X85178214Y-97133951D01*
X85178217Y-97133953D01*
X85178218Y-97133954D01*
X85301133Y-97216083D01*
X85301136Y-97216085D01*
X85351295Y-97236861D01*
X85357710Y-97239518D01*
X85437718Y-97272659D01*
X85553871Y-97295763D01*
X85577010Y-97300365D01*
X85582711Y-97301500D01*
X85582712Y-97301500D01*
X87022920Y-97301500D01*
X87120462Y-97282096D01*
X87167913Y-97272658D01*
X87304495Y-97216084D01*
X87353729Y-97183186D01*
X87427416Y-97133952D01*
X87824548Y-96736817D01*
X87851475Y-96722114D01*
X87877294Y-96705522D01*
X87883494Y-96704630D01*
X87885871Y-96703333D01*
X87912229Y-96700499D01*
X88087769Y-96700499D01*
X88154808Y-96720184D01*
X88175450Y-96736818D01*
X88222584Y-96783952D01*
X88294770Y-96832184D01*
X88345505Y-96866084D01*
X88402080Y-96889518D01*
X88482088Y-96922659D01*
X88598241Y-96945763D01*
X88617468Y-96949587D01*
X88627081Y-96951500D01*
X88627082Y-96951500D01*
X88627083Y-96951500D01*
X88774918Y-96951500D01*
X92100545Y-96951500D01*
X92167584Y-96971185D01*
X92213339Y-97023989D01*
X92223283Y-97093147D01*
X92218477Y-97113812D01*
X92185247Y-97216083D01*
X92182753Y-97223760D01*
X92149500Y-97433713D01*
X92149500Y-97646286D01*
X92182753Y-97856239D01*
X92248444Y-98058414D01*
X92344951Y-98247820D01*
X92469890Y-98419786D01*
X92620213Y-98570109D01*
X92792182Y-98695050D01*
X92800946Y-98699516D01*
X92851742Y-98747491D01*
X92868536Y-98815312D01*
X92845998Y-98881447D01*
X92800946Y-98920484D01*
X92792182Y-98924949D01*
X92620213Y-99049890D01*
X92469890Y-99200213D01*
X92344951Y-99372179D01*
X92248444Y-99561585D01*
X92182753Y-99763760D01*
X92149500Y-99973713D01*
X92149500Y-100186286D01*
X92182753Y-100396239D01*
X92248444Y-100598414D01*
X92344951Y-100787820D01*
X92469890Y-100959786D01*
X92620213Y-101110109D01*
X92792182Y-101235050D01*
X92800946Y-101239516D01*
X92851742Y-101287491D01*
X92868536Y-101355312D01*
X92845998Y-101421447D01*
X92800946Y-101460484D01*
X92792182Y-101464949D01*
X92620213Y-101589890D01*
X92469890Y-101740213D01*
X92344951Y-101912179D01*
X92248444Y-102101585D01*
X92182753Y-102303760D01*
X92149500Y-102513713D01*
X92149500Y-102726286D01*
X92182753Y-102936239D01*
X92248444Y-103138414D01*
X92344951Y-103327820D01*
X92469890Y-103499786D01*
X92620213Y-103650109D01*
X92792182Y-103775050D01*
X92800946Y-103779516D01*
X92851742Y-103827491D01*
X92868536Y-103895312D01*
X92845998Y-103961447D01*
X92800946Y-104000484D01*
X92792182Y-104004949D01*
X92620213Y-104129890D01*
X92469890Y-104280213D01*
X92344951Y-104452179D01*
X92248444Y-104641585D01*
X92182753Y-104843760D01*
X92149500Y-105053713D01*
X92149500Y-105266286D01*
X92182753Y-105476239D01*
X92248444Y-105678414D01*
X92344951Y-105867820D01*
X92469890Y-106039786D01*
X92620213Y-106190109D01*
X92792182Y-106315050D01*
X92800946Y-106319516D01*
X92851742Y-106367491D01*
X92868536Y-106435312D01*
X92845998Y-106501447D01*
X92800946Y-106540484D01*
X92792182Y-106544949D01*
X92620213Y-106669890D01*
X92469890Y-106820213D01*
X92344951Y-106992179D01*
X92248444Y-107181585D01*
X92182753Y-107383760D01*
X92160893Y-107521782D01*
X92149500Y-107593713D01*
X92149500Y-107806287D01*
X92182754Y-108016243D01*
X92233831Y-108173442D01*
X92248444Y-108218414D01*
X92344951Y-108407820D01*
X92469890Y-108579786D01*
X92620213Y-108730109D01*
X92792182Y-108855050D01*
X92800946Y-108859516D01*
X92851742Y-108907491D01*
X92868536Y-108975312D01*
X92845998Y-109041447D01*
X92800946Y-109080484D01*
X92792182Y-109084949D01*
X92620213Y-109209890D01*
X92469890Y-109360213D01*
X92344951Y-109532179D01*
X92248444Y-109721585D01*
X92182753Y-109923760D01*
X92149500Y-110133713D01*
X92149500Y-110346286D01*
X92166285Y-110452266D01*
X92182754Y-110556243D01*
X92237213Y-110723851D01*
X92248443Y-110758412D01*
X92344951Y-110947820D01*
X92469890Y-111119786D01*
X92620213Y-111270109D01*
X92792179Y-111395048D01*
X92792181Y-111395049D01*
X92792184Y-111395051D01*
X92801493Y-111399794D01*
X92852290Y-111447766D01*
X92869087Y-111515587D01*
X92846552Y-111581722D01*
X92801505Y-111620760D01*
X92792446Y-111625376D01*
X92792440Y-111625380D01*
X92738282Y-111664727D01*
X92738282Y-111664728D01*
X93370591Y-112297037D01*
X93307007Y-112314075D01*
X93192993Y-112379901D01*
X93099901Y-112472993D01*
X93034075Y-112587007D01*
X93017037Y-112650591D01*
X92384728Y-112018282D01*
X92384727Y-112018282D01*
X92345380Y-112072439D01*
X92248904Y-112261782D01*
X92183242Y-112463869D01*
X92183242Y-112463872D01*
X92150000Y-112673753D01*
X92150000Y-112886246D01*
X92183242Y-113096127D01*
X92183242Y-113096130D01*
X92248904Y-113298217D01*
X92345375Y-113487550D01*
X92384728Y-113541716D01*
X93017037Y-112909408D01*
X93034075Y-112972993D01*
X93099901Y-113087007D01*
X93192993Y-113180099D01*
X93307007Y-113245925D01*
X93370590Y-113262962D01*
X92738282Y-113895269D01*
X92738282Y-113895270D01*
X92792452Y-113934626D01*
X92792451Y-113934626D01*
X92801495Y-113939234D01*
X92852292Y-113987208D01*
X92869087Y-114055029D01*
X92846550Y-114121164D01*
X92801499Y-114160202D01*
X92792182Y-114164949D01*
X92620213Y-114289890D01*
X92469890Y-114440213D01*
X92344951Y-114612179D01*
X92248444Y-114801585D01*
X92182753Y-115003760D01*
X92149500Y-115213713D01*
X92149500Y-115426286D01*
X92182753Y-115636239D01*
X92248444Y-115838414D01*
X92344951Y-116027820D01*
X92469890Y-116199786D01*
X92620213Y-116350109D01*
X92792179Y-116475048D01*
X92792181Y-116475049D01*
X92792184Y-116475051D01*
X92981588Y-116571557D01*
X93183757Y-116637246D01*
X93393713Y-116670500D01*
X93393714Y-116670500D01*
X93606286Y-116670500D01*
X93606287Y-116670500D01*
X93701728Y-116655383D01*
X93771021Y-116664337D01*
X93808807Y-116690175D01*
X97201586Y-120082954D01*
X97224422Y-120098211D01*
X97275270Y-120132186D01*
X97324505Y-120165084D01*
X97381080Y-120188518D01*
X97461088Y-120221659D01*
X97577241Y-120244763D01*
X97596468Y-120248587D01*
X97606081Y-120250500D01*
X97606082Y-120250500D01*
X121073920Y-120250500D01*
X121171462Y-120231096D01*
X121218913Y-120221658D01*
X121355495Y-120165084D01*
X121404729Y-120132186D01*
X121478416Y-120082952D01*
X129082952Y-112478416D01*
X129132186Y-112404729D01*
X129165084Y-112355495D01*
X129188518Y-112298920D01*
X129221659Y-112218912D01*
X129250500Y-112073917D01*
X129250500Y-111926082D01*
X129250500Y-111005428D01*
X129239040Y-110947816D01*
X129221659Y-110860434D01*
X129188518Y-110780426D01*
X129169222Y-110733841D01*
X129165087Y-110723857D01*
X129165079Y-110723842D01*
X129132187Y-110674617D01*
X129132185Y-110674614D01*
X129082956Y-110600935D01*
X129082952Y-110600930D01*
X128585819Y-110103797D01*
X128552334Y-110042474D01*
X128549500Y-110016116D01*
X128549500Y-109480660D01*
X128569185Y-109413621D01*
X128621989Y-109367866D01*
X128691147Y-109357922D01*
X128692898Y-109358187D01*
X128893754Y-109390000D01*
X129106246Y-109390000D01*
X129316127Y-109356757D01*
X129316130Y-109356757D01*
X129518217Y-109291095D01*
X129707554Y-109194622D01*
X129761716Y-109155270D01*
X129761717Y-109155270D01*
X129129409Y-108522962D01*
X129192993Y-108505925D01*
X129307007Y-108440099D01*
X129400099Y-108347007D01*
X129465925Y-108232993D01*
X129482962Y-108169408D01*
X130115270Y-108801717D01*
X130115270Y-108801716D01*
X130154622Y-108747554D01*
X130251095Y-108558217D01*
X130316757Y-108356130D01*
X130316757Y-108356127D01*
X130350000Y-108146246D01*
X130350000Y-107933753D01*
X130316757Y-107723872D01*
X130316757Y-107723869D01*
X130251095Y-107521782D01*
X130154624Y-107332449D01*
X130115270Y-107278282D01*
X130115269Y-107278282D01*
X129482962Y-107910590D01*
X129465925Y-107847007D01*
X129400099Y-107732993D01*
X129307007Y-107639901D01*
X129192993Y-107574075D01*
X129129407Y-107557036D01*
X129799627Y-106886818D01*
X129860950Y-106853333D01*
X129887308Y-106850499D01*
X129897871Y-106850499D01*
X129897872Y-106850499D01*
X129957483Y-106844091D01*
X130092331Y-106793796D01*
X130207546Y-106707546D01*
X130293796Y-106592331D01*
X130344091Y-106457483D01*
X130350500Y-106397873D01*
X130350499Y-104602128D01*
X130344091Y-104542517D01*
X130293796Y-104407669D01*
X130293795Y-104407668D01*
X130293793Y-104407664D01*
X130207547Y-104292455D01*
X130207544Y-104292452D01*
X130092335Y-104206206D01*
X130092328Y-104206202D01*
X129957482Y-104155908D01*
X129957483Y-104155908D01*
X129897883Y-104149501D01*
X129897881Y-104149500D01*
X129897873Y-104149500D01*
X129897864Y-104149500D01*
X128102129Y-104149500D01*
X128102123Y-104149501D01*
X128042516Y-104155908D01*
X127907671Y-104206202D01*
X127907664Y-104206206D01*
X127792455Y-104292452D01*
X127792452Y-104292455D01*
X127706206Y-104407664D01*
X127706202Y-104407671D01*
X127655908Y-104542517D01*
X127649501Y-104602116D01*
X127649501Y-104602123D01*
X127649500Y-104602135D01*
X127649500Y-105737769D01*
X127629815Y-105804808D01*
X127613181Y-105825450D01*
X127216052Y-106222578D01*
X127216049Y-106222581D01*
X127166812Y-106296271D01*
X127133921Y-106345496D01*
X127133914Y-106345508D01*
X127077342Y-106482086D01*
X127077340Y-106482092D01*
X127048500Y-106627079D01*
X127048500Y-106627082D01*
X127048500Y-110452264D01*
X127048500Y-110452266D01*
X127048499Y-110452266D01*
X127077340Y-110597253D01*
X127077343Y-110597263D01*
X127133913Y-110733836D01*
X127133914Y-110733837D01*
X127133916Y-110733841D01*
X127150333Y-110758410D01*
X127150334Y-110758412D01*
X127216051Y-110856766D01*
X127216052Y-110856767D01*
X127713181Y-111353895D01*
X127727884Y-111380822D01*
X127744477Y-111406641D01*
X127745368Y-111412841D01*
X127746666Y-111415218D01*
X127749500Y-111441576D01*
X127749500Y-111637770D01*
X127729815Y-111704809D01*
X127713181Y-111725451D01*
X120725451Y-118713181D01*
X120664128Y-118746666D01*
X120637770Y-118749500D01*
X98042230Y-118749500D01*
X97975191Y-118729815D01*
X97954549Y-118713181D01*
X94870175Y-115628807D01*
X94836690Y-115567484D01*
X94835383Y-115521728D01*
X94850500Y-115426285D01*
X94850500Y-115213713D01*
X94817246Y-115003760D01*
X94817246Y-115003757D01*
X94751557Y-114801588D01*
X94655051Y-114612184D01*
X94655049Y-114612181D01*
X94655048Y-114612179D01*
X94530109Y-114440213D01*
X94379786Y-114289890D01*
X94207817Y-114164949D01*
X94198504Y-114160204D01*
X94147707Y-114112230D01*
X94130912Y-114044409D01*
X94153449Y-113978274D01*
X94198507Y-113939232D01*
X94207555Y-113934622D01*
X94261716Y-113895270D01*
X94261717Y-113895270D01*
X93629408Y-113262962D01*
X93692993Y-113245925D01*
X93807007Y-113180099D01*
X93900099Y-113087007D01*
X93965925Y-112972993D01*
X93982962Y-112909409D01*
X94615270Y-113541717D01*
X94615270Y-113541716D01*
X94654622Y-113487554D01*
X94751095Y-113298217D01*
X94816757Y-113096130D01*
X94816757Y-113096127D01*
X94850000Y-112886246D01*
X94850000Y-112673753D01*
X94816757Y-112463872D01*
X94816757Y-112463869D01*
X94751095Y-112261782D01*
X94654624Y-112072449D01*
X94615270Y-112018282D01*
X94615269Y-112018282D01*
X93982962Y-112650590D01*
X93965925Y-112587007D01*
X93900099Y-112472993D01*
X93807007Y-112379901D01*
X93692993Y-112314075D01*
X93629409Y-112297037D01*
X94261716Y-111664728D01*
X94207547Y-111625373D01*
X94207547Y-111625372D01*
X94198500Y-111620763D01*
X94147706Y-111572788D01*
X94130912Y-111504966D01*
X94153451Y-111438832D01*
X94198508Y-111399793D01*
X94207816Y-111395051D01*
X94287007Y-111337515D01*
X94379786Y-111270109D01*
X94379788Y-111270106D01*
X94379792Y-111270104D01*
X94530104Y-111119792D01*
X94530106Y-111119788D01*
X94530109Y-111119786D01*
X94639086Y-110969789D01*
X94655051Y-110947816D01*
X94751557Y-110758412D01*
X94817246Y-110556243D01*
X94850500Y-110346287D01*
X94850500Y-110133713D01*
X94817246Y-109923757D01*
X94751557Y-109721588D01*
X94655051Y-109532184D01*
X94655049Y-109532181D01*
X94655048Y-109532179D01*
X94530109Y-109360213D01*
X94379786Y-109209890D01*
X94207820Y-109084951D01*
X94207115Y-109084591D01*
X94199054Y-109080485D01*
X94148259Y-109032512D01*
X94131463Y-108964692D01*
X94153999Y-108898556D01*
X94199054Y-108859515D01*
X94207816Y-108855051D01*
X94229789Y-108839086D01*
X94379786Y-108730109D01*
X94379788Y-108730106D01*
X94379792Y-108730104D01*
X94530104Y-108579792D01*
X94530106Y-108579788D01*
X94530109Y-108579786D01*
X94655048Y-108407820D01*
X94655047Y-108407820D01*
X94655051Y-108407816D01*
X94751557Y-108218412D01*
X94817246Y-108016243D01*
X94850500Y-107806287D01*
X94850500Y-107593713D01*
X94817246Y-107383757D01*
X94751557Y-107181588D01*
X94655051Y-106992184D01*
X94655049Y-106992181D01*
X94655048Y-106992179D01*
X94530109Y-106820213D01*
X94379786Y-106669890D01*
X94207820Y-106544951D01*
X94207115Y-106544591D01*
X94199054Y-106540485D01*
X94148259Y-106492512D01*
X94131463Y-106424692D01*
X94153999Y-106358556D01*
X94199054Y-106319515D01*
X94207816Y-106315051D01*
X94335087Y-106222584D01*
X94379786Y-106190109D01*
X94379788Y-106190106D01*
X94379792Y-106190104D01*
X94530104Y-106039792D01*
X94530106Y-106039788D01*
X94530109Y-106039786D01*
X94655048Y-105867820D01*
X94655047Y-105867820D01*
X94655051Y-105867816D01*
X94751557Y-105678412D01*
X94817246Y-105476243D01*
X94850500Y-105266287D01*
X94850500Y-105053713D01*
X94817246Y-104843757D01*
X94751557Y-104641588D01*
X94655051Y-104452184D01*
X94655049Y-104452181D01*
X94655048Y-104452179D01*
X94530109Y-104280213D01*
X94379786Y-104129890D01*
X94207820Y-104004951D01*
X94207115Y-104004591D01*
X94199054Y-104000485D01*
X94148259Y-103952512D01*
X94131463Y-103884692D01*
X94153999Y-103818556D01*
X94199054Y-103779515D01*
X94207816Y-103775051D01*
X94229789Y-103759086D01*
X94379786Y-103650109D01*
X94379788Y-103650106D01*
X94379792Y-103650104D01*
X94530104Y-103499792D01*
X94530106Y-103499788D01*
X94530109Y-103499786D01*
X94655048Y-103327820D01*
X94655047Y-103327820D01*
X94655051Y-103327816D01*
X94751557Y-103138412D01*
X94817246Y-102936243D01*
X94850500Y-102726287D01*
X94850500Y-102513713D01*
X94817246Y-102303757D01*
X94751557Y-102101588D01*
X94655051Y-101912184D01*
X94655049Y-101912181D01*
X94655048Y-101912179D01*
X94530109Y-101740213D01*
X94379786Y-101589890D01*
X94207820Y-101464951D01*
X94207115Y-101464591D01*
X94199054Y-101460485D01*
X94148259Y-101412512D01*
X94131463Y-101344692D01*
X94153999Y-101278556D01*
X94199054Y-101239515D01*
X94207816Y-101235051D01*
X94229789Y-101219086D01*
X94379786Y-101110109D01*
X94379788Y-101110106D01*
X94379792Y-101110104D01*
X94530104Y-100959792D01*
X94530106Y-100959788D01*
X94530109Y-100959786D01*
X94655048Y-100787820D01*
X94655047Y-100787820D01*
X94655051Y-100787816D01*
X94751557Y-100598412D01*
X94817246Y-100396243D01*
X94850500Y-100186287D01*
X94850500Y-99973713D01*
X94817246Y-99763757D01*
X94751557Y-99561588D01*
X94655051Y-99372184D01*
X94655049Y-99372181D01*
X94655048Y-99372179D01*
X94530109Y-99200213D01*
X94379786Y-99049890D01*
X94207820Y-98924951D01*
X94207115Y-98924591D01*
X94199054Y-98920485D01*
X94148259Y-98872512D01*
X94131463Y-98804692D01*
X94153999Y-98738556D01*
X94199054Y-98699515D01*
X94207816Y-98695051D01*
X94229789Y-98679086D01*
X94379786Y-98570109D01*
X94379788Y-98570106D01*
X94379792Y-98570104D01*
X94530104Y-98419792D01*
X94530106Y-98419788D01*
X94530109Y-98419786D01*
X94655048Y-98247820D01*
X94655047Y-98247820D01*
X94655051Y-98247816D01*
X94751557Y-98058412D01*
X94817246Y-97856243D01*
X94850500Y-97646287D01*
X94850500Y-97433713D01*
X94817246Y-97223757D01*
X94781523Y-97113816D01*
X94779529Y-97043977D01*
X94815609Y-96984144D01*
X94878310Y-96953316D01*
X94899455Y-96951500D01*
X104375500Y-96951500D01*
X104442539Y-96971185D01*
X104488294Y-97023989D01*
X104499500Y-97075500D01*
X104499500Y-101743918D01*
X104499500Y-101743920D01*
X104499499Y-101743920D01*
X104528340Y-101888907D01*
X104528343Y-101888917D01*
X104584914Y-102025492D01*
X104617812Y-102074727D01*
X104617813Y-102074730D01*
X104667046Y-102148414D01*
X104667052Y-102148421D01*
X117529824Y-115011191D01*
X117563309Y-115072514D01*
X117564616Y-115118270D01*
X117549500Y-115213707D01*
X117549500Y-115426286D01*
X117582753Y-115636239D01*
X117648444Y-115838414D01*
X117744951Y-116027820D01*
X117869890Y-116199786D01*
X118020213Y-116350109D01*
X118192179Y-116475048D01*
X118192181Y-116475049D01*
X118192184Y-116475051D01*
X118381588Y-116571557D01*
X118583757Y-116637246D01*
X118793713Y-116670500D01*
X118793714Y-116670500D01*
X119006286Y-116670500D01*
X119006287Y-116670500D01*
X119216243Y-116637246D01*
X119418412Y-116571557D01*
X119607816Y-116475051D01*
X119629789Y-116459086D01*
X119779786Y-116350109D01*
X119779788Y-116350106D01*
X119779792Y-116350104D01*
X119930104Y-116199792D01*
X119930106Y-116199788D01*
X119930109Y-116199786D01*
X120055048Y-116027820D01*
X120055047Y-116027820D01*
X120055051Y-116027816D01*
X120151557Y-115838412D01*
X120217246Y-115636243D01*
X120250500Y-115426287D01*
X120250500Y-115213713D01*
X120217246Y-115003757D01*
X120151557Y-114801588D01*
X120055051Y-114612184D01*
X120055049Y-114612181D01*
X120055048Y-114612179D01*
X119930109Y-114440213D01*
X119779786Y-114289890D01*
X119607817Y-114164949D01*
X119598504Y-114160204D01*
X119547707Y-114112230D01*
X119530912Y-114044409D01*
X119553449Y-113978274D01*
X119598507Y-113939232D01*
X119607555Y-113934622D01*
X119661716Y-113895270D01*
X119661717Y-113895270D01*
X119029408Y-113262962D01*
X119092993Y-113245925D01*
X119207007Y-113180099D01*
X119300099Y-113087007D01*
X119365925Y-112972993D01*
X119382962Y-112909409D01*
X120015270Y-113541717D01*
X120015270Y-113541716D01*
X120054622Y-113487554D01*
X120151095Y-113298217D01*
X120216757Y-113096130D01*
X120216757Y-113096127D01*
X120250000Y-112886246D01*
X120250000Y-112673753D01*
X120216757Y-112463872D01*
X120216757Y-112463869D01*
X120151095Y-112261782D01*
X120054624Y-112072449D01*
X120015270Y-112018282D01*
X120015269Y-112018282D01*
X119382962Y-112650590D01*
X119365925Y-112587007D01*
X119300099Y-112472993D01*
X119207007Y-112379901D01*
X119092993Y-112314075D01*
X119029409Y-112297037D01*
X119661716Y-111664728D01*
X119607547Y-111625373D01*
X119607547Y-111625372D01*
X119598500Y-111620763D01*
X119547706Y-111572788D01*
X119530912Y-111504966D01*
X119553451Y-111438832D01*
X119598508Y-111399793D01*
X119607816Y-111395051D01*
X119687007Y-111337515D01*
X119779786Y-111270109D01*
X119779788Y-111270106D01*
X119779792Y-111270104D01*
X119930104Y-111119792D01*
X119930106Y-111119788D01*
X119930109Y-111119786D01*
X120039086Y-110969789D01*
X120055051Y-110947816D01*
X120151557Y-110758412D01*
X120217246Y-110556243D01*
X120250500Y-110346287D01*
X120250500Y-110133713D01*
X120217246Y-109923757D01*
X120151557Y-109721588D01*
X120055051Y-109532184D01*
X120055049Y-109532181D01*
X120055048Y-109532179D01*
X119930109Y-109360213D01*
X119779786Y-109209890D01*
X119607820Y-109084951D01*
X119607115Y-109084591D01*
X119599054Y-109080485D01*
X119548259Y-109032512D01*
X119531463Y-108964692D01*
X119553999Y-108898556D01*
X119599054Y-108859515D01*
X119607816Y-108855051D01*
X119629789Y-108839086D01*
X119779786Y-108730109D01*
X119779788Y-108730106D01*
X119779792Y-108730104D01*
X119930104Y-108579792D01*
X119930106Y-108579788D01*
X119930109Y-108579786D01*
X120055048Y-108407820D01*
X120055047Y-108407820D01*
X120055051Y-108407816D01*
X120151557Y-108218412D01*
X120217246Y-108016243D01*
X120250500Y-107806287D01*
X120250500Y-107593713D01*
X120217246Y-107383757D01*
X120151557Y-107181588D01*
X120055051Y-106992184D01*
X120055049Y-106992181D01*
X120055048Y-106992179D01*
X119930109Y-106820213D01*
X119779786Y-106669890D01*
X119607820Y-106544951D01*
X119607115Y-106544591D01*
X119599054Y-106540485D01*
X119548259Y-106492512D01*
X119531463Y-106424692D01*
X119553999Y-106358556D01*
X119599054Y-106319515D01*
X119607816Y-106315051D01*
X119735087Y-106222584D01*
X119779786Y-106190109D01*
X119779788Y-106190106D01*
X119779792Y-106190104D01*
X119930104Y-106039792D01*
X119930106Y-106039788D01*
X119930109Y-106039786D01*
X120055048Y-105867820D01*
X120055047Y-105867820D01*
X120055051Y-105867816D01*
X120151557Y-105678412D01*
X120217246Y-105476243D01*
X120250500Y-105266287D01*
X120250500Y-105053713D01*
X120217246Y-104843757D01*
X120151557Y-104641588D01*
X120055051Y-104452184D01*
X120055049Y-104452181D01*
X120055048Y-104452179D01*
X119930109Y-104280213D01*
X119779786Y-104129890D01*
X119607820Y-104004951D01*
X119607115Y-104004591D01*
X119599054Y-104000485D01*
X119548259Y-103952512D01*
X119531463Y-103884692D01*
X119553999Y-103818556D01*
X119599054Y-103779515D01*
X119607816Y-103775051D01*
X119629789Y-103759086D01*
X119779786Y-103650109D01*
X119779788Y-103650106D01*
X119779792Y-103650104D01*
X119930104Y-103499792D01*
X119930106Y-103499788D01*
X119930109Y-103499786D01*
X120055048Y-103327820D01*
X120055047Y-103327820D01*
X120055051Y-103327816D01*
X120151557Y-103138412D01*
X120217246Y-102936243D01*
X120250500Y-102726287D01*
X120250500Y-102513713D01*
X120217246Y-102303757D01*
X120151557Y-102101588D01*
X120055051Y-101912184D01*
X120055049Y-101912181D01*
X120055048Y-101912179D01*
X119930109Y-101740213D01*
X119779786Y-101589890D01*
X119607820Y-101464951D01*
X119607115Y-101464591D01*
X119599054Y-101460485D01*
X119548259Y-101412512D01*
X119531463Y-101344692D01*
X119553999Y-101278556D01*
X119599054Y-101239515D01*
X119607816Y-101235051D01*
X119629789Y-101219086D01*
X119779786Y-101110109D01*
X119779788Y-101110106D01*
X119779792Y-101110104D01*
X119930104Y-100959792D01*
X119930106Y-100959788D01*
X119930109Y-100959786D01*
X120055048Y-100787820D01*
X120055047Y-100787820D01*
X120055051Y-100787816D01*
X120151557Y-100598412D01*
X120217246Y-100396243D01*
X120250500Y-100186287D01*
X120250500Y-99973713D01*
X120217246Y-99763757D01*
X120151557Y-99561588D01*
X120055051Y-99372184D01*
X120055049Y-99372181D01*
X120055048Y-99372179D01*
X119930109Y-99200213D01*
X119779786Y-99049890D01*
X119607820Y-98924951D01*
X119607115Y-98924591D01*
X119599054Y-98920485D01*
X119548259Y-98872512D01*
X119531463Y-98804692D01*
X119553999Y-98738556D01*
X119599054Y-98699515D01*
X119607816Y-98695051D01*
X119629789Y-98679086D01*
X119779786Y-98570109D01*
X119779788Y-98570106D01*
X119779792Y-98570104D01*
X119930104Y-98419792D01*
X119930106Y-98419788D01*
X119930109Y-98419786D01*
X120055048Y-98247820D01*
X120055047Y-98247820D01*
X120055051Y-98247816D01*
X120151557Y-98058412D01*
X120217246Y-97856243D01*
X120250500Y-97646287D01*
X120250500Y-97433713D01*
X120217246Y-97223757D01*
X120151557Y-97021588D01*
X120055051Y-96832184D01*
X120055049Y-96832181D01*
X120055048Y-96832179D01*
X119930109Y-96660213D01*
X119779786Y-96509890D01*
X119607820Y-96384951D01*
X119607115Y-96384591D01*
X119599054Y-96380485D01*
X119548259Y-96332512D01*
X119531463Y-96264692D01*
X119553999Y-96198556D01*
X119599054Y-96159515D01*
X119607816Y-96155051D01*
X119629789Y-96139086D01*
X119779786Y-96030109D01*
X119779788Y-96030106D01*
X119779792Y-96030104D01*
X119930104Y-95879792D01*
X119930106Y-95879788D01*
X119930109Y-95879786D01*
X120055048Y-95707820D01*
X120055047Y-95707820D01*
X120055051Y-95707816D01*
X120151557Y-95518412D01*
X120217246Y-95316243D01*
X120250500Y-95106287D01*
X120250500Y-94893713D01*
X120217246Y-94683757D01*
X120151557Y-94481588D01*
X120055051Y-94292184D01*
X120055049Y-94292181D01*
X120055048Y-94292179D01*
X119930109Y-94120213D01*
X119779786Y-93969890D01*
X119607820Y-93844951D01*
X119607115Y-93844591D01*
X119599054Y-93840485D01*
X119548259Y-93792512D01*
X119531463Y-93724692D01*
X119553999Y-93658556D01*
X119599054Y-93619515D01*
X119607816Y-93615051D01*
X119693261Y-93552972D01*
X119779786Y-93490109D01*
X119779788Y-93490106D01*
X119779792Y-93490104D01*
X119930104Y-93339792D01*
X119930106Y-93339788D01*
X119930109Y-93339786D01*
X120055048Y-93167820D01*
X120055047Y-93167820D01*
X120055051Y-93167816D01*
X120151557Y-92978412D01*
X120217246Y-92776243D01*
X120250500Y-92566287D01*
X120250500Y-92353713D01*
X120217246Y-92143757D01*
X120151557Y-91941588D01*
X120055051Y-91752184D01*
X120055049Y-91752181D01*
X120055048Y-91752179D01*
X119930109Y-91580213D01*
X119779786Y-91429890D01*
X119607820Y-91304951D01*
X119607115Y-91304591D01*
X119599054Y-91300485D01*
X119548259Y-91252512D01*
X119531463Y-91184692D01*
X119553999Y-91118556D01*
X119599054Y-91079515D01*
X119607816Y-91075051D01*
X119656346Y-91039792D01*
X119779786Y-90950109D01*
X119779788Y-90950106D01*
X119779792Y-90950104D01*
X119930104Y-90799792D01*
X119966643Y-90749500D01*
X119986903Y-90721615D01*
X120042233Y-90678949D01*
X120087221Y-90670500D01*
X122481797Y-90670500D01*
X122548836Y-90690185D01*
X122594591Y-90742989D01*
X122604535Y-90812147D01*
X122575510Y-90875703D01*
X122550689Y-90897600D01*
X122532545Y-90909724D01*
X122521579Y-90917051D01*
X122417052Y-91021578D01*
X122417052Y-91021579D01*
X122417049Y-91021582D01*
X122417048Y-91021584D01*
X122397575Y-91050728D01*
X122334918Y-91144502D01*
X122334914Y-91144509D01*
X122278342Y-91281087D01*
X122278340Y-91281093D01*
X122249500Y-91426080D01*
X122249500Y-91426083D01*
X122249500Y-91573917D01*
X122249500Y-91573919D01*
X122249499Y-91573919D01*
X122278340Y-91718906D01*
X122278342Y-91718912D01*
X122334916Y-91855494D01*
X122417048Y-91978416D01*
X122417052Y-91978420D01*
X122417052Y-91978421D01*
X125021584Y-94582952D01*
X125021586Y-94582954D01*
X125047991Y-94600596D01*
X125095270Y-94632186D01*
X125144505Y-94665084D01*
X125144506Y-94665084D01*
X125144507Y-94665085D01*
X125144509Y-94665086D01*
X125281082Y-94721656D01*
X125281087Y-94721658D01*
X125281091Y-94721658D01*
X125281092Y-94721659D01*
X125426079Y-94750500D01*
X125426082Y-94750500D01*
X129472391Y-94750500D01*
X129572134Y-94730659D01*
X129617384Y-94721658D01*
X129753966Y-94665084D01*
X129803200Y-94632186D01*
X129803205Y-94632183D01*
X129827542Y-94615921D01*
X129876887Y-94582952D01*
X130783951Y-93675887D01*
X130866084Y-93552966D01*
X130922658Y-93416384D01*
X130932096Y-93368933D01*
X130951500Y-93271391D01*
X130951500Y-88747079D01*
X130922659Y-88602092D01*
X130922658Y-88602091D01*
X130922658Y-88602087D01*
X130882251Y-88504535D01*
X130866087Y-88465511D01*
X130866080Y-88465498D01*
X130783952Y-88342585D01*
X130783951Y-88342584D01*
X130679416Y-88238049D01*
X130370174Y-87928807D01*
X130336689Y-87867484D01*
X130335382Y-87821733D01*
X130350500Y-87726287D01*
X130350500Y-87513713D01*
X130317246Y-87303757D01*
X130251557Y-87101588D01*
X130155051Y-86912184D01*
X130155049Y-86912181D01*
X130155048Y-86912179D01*
X130030109Y-86740213D01*
X129879786Y-86589890D01*
X129707817Y-86464949D01*
X129698504Y-86460204D01*
X129647707Y-86412230D01*
X129630912Y-86344409D01*
X129653449Y-86278274D01*
X129698507Y-86239232D01*
X129707555Y-86234622D01*
X129761716Y-86195270D01*
X129761717Y-86195270D01*
X129129409Y-85562962D01*
X129192993Y-85545925D01*
X129307007Y-85480099D01*
X129400099Y-85387007D01*
X129465925Y-85272993D01*
X129482962Y-85209409D01*
X130115270Y-85841717D01*
X130115270Y-85841716D01*
X130154622Y-85787554D01*
X130251095Y-85598217D01*
X130316757Y-85396130D01*
X130316757Y-85396127D01*
X130350000Y-85186246D01*
X130350000Y-84973753D01*
X130316757Y-84763872D01*
X130316757Y-84763869D01*
X130251095Y-84561782D01*
X130154622Y-84372445D01*
X130121252Y-84326515D01*
X130097772Y-84260708D01*
X130113597Y-84192654D01*
X130133883Y-84165955D01*
X130783951Y-83515887D01*
X130866084Y-83392966D01*
X130922658Y-83256384D01*
X130932096Y-83208933D01*
X130951500Y-83111391D01*
X130951500Y-78725079D01*
X130922659Y-78580092D01*
X130922658Y-78580091D01*
X130922658Y-78580087D01*
X130922656Y-78580082D01*
X130866087Y-78443511D01*
X130866080Y-78443498D01*
X130783951Y-78320584D01*
X130783948Y-78320580D01*
X130679419Y-78216051D01*
X130679415Y-78216048D01*
X130556501Y-78133919D01*
X130556488Y-78133912D01*
X130419917Y-78077343D01*
X130419907Y-78077340D01*
X130274920Y-78048500D01*
X130274918Y-78048500D01*
X127872917Y-78048500D01*
X127725082Y-78048500D01*
X127725080Y-78048500D01*
X127580092Y-78077340D01*
X127580082Y-78077343D01*
X127443511Y-78133912D01*
X127443498Y-78133919D01*
X127320584Y-78216048D01*
X127320580Y-78216051D01*
X125224451Y-80312181D01*
X125163128Y-80345666D01*
X125136770Y-80348500D01*
X120374500Y-80348500D01*
X120307461Y-80328815D01*
X120261706Y-80276011D01*
X120250500Y-80224500D01*
X120250499Y-78862129D01*
X120250498Y-78862123D01*
X120250497Y-78862116D01*
X120244091Y-78802517D01*
X120193796Y-78667669D01*
X120193795Y-78667668D01*
X120193793Y-78667664D01*
X120107547Y-78552455D01*
X120107544Y-78552452D01*
X119992335Y-78466206D01*
X119992328Y-78466202D01*
X119857482Y-78415908D01*
X119857483Y-78415908D01*
X119797883Y-78409501D01*
X119797881Y-78409500D01*
X119797873Y-78409500D01*
X119797864Y-78409500D01*
X118002129Y-78409500D01*
X118002123Y-78409501D01*
X117942516Y-78415908D01*
X117807671Y-78466202D01*
X117807664Y-78466206D01*
X117692455Y-78552452D01*
X117692452Y-78552455D01*
X117606206Y-78667664D01*
X117606202Y-78667671D01*
X117555908Y-78802517D01*
X117549501Y-78862116D01*
X117549501Y-78862123D01*
X117549500Y-78862135D01*
X117549501Y-80224500D01*
X117529816Y-80291539D01*
X117477013Y-80337294D01*
X117425501Y-80348500D01*
X101543547Y-80348500D01*
X101514713Y-80354234D01*
X101514714Y-80354235D01*
X101398564Y-80377339D01*
X101398556Y-80377341D01*
X101349209Y-80397781D01*
X101349210Y-80397782D01*
X101261975Y-80433916D01*
X101212740Y-80466813D01*
X101139059Y-80516044D01*
X101139051Y-80516050D01*
X94886402Y-86768699D01*
X94825079Y-86802184D01*
X94755387Y-86797200D01*
X94699454Y-86755328D01*
X94688236Y-86737313D01*
X94683216Y-86727461D01*
X94655051Y-86672184D01*
X94595266Y-86589896D01*
X94530109Y-86500213D01*
X94379786Y-86349890D01*
X94207820Y-86224951D01*
X94207115Y-86224591D01*
X94199054Y-86220485D01*
X94148259Y-86172512D01*
X94131463Y-86104692D01*
X94153999Y-86038556D01*
X94199054Y-85999515D01*
X94207816Y-85995051D01*
X94229789Y-85979086D01*
X94379786Y-85870109D01*
X94379788Y-85870106D01*
X94379792Y-85870104D01*
X94530104Y-85719792D01*
X94530106Y-85719788D01*
X94530109Y-85719786D01*
X94655048Y-85547820D01*
X94655047Y-85547820D01*
X94655051Y-85547816D01*
X94751557Y-85358412D01*
X94817246Y-85156243D01*
X94850500Y-84946287D01*
X94850500Y-84733713D01*
X94817246Y-84523757D01*
X94751557Y-84321588D01*
X94655051Y-84132184D01*
X94655049Y-84132181D01*
X94655048Y-84132179D01*
X94530109Y-83960213D01*
X94379786Y-83809890D01*
X94207820Y-83684951D01*
X94207115Y-83684591D01*
X94199054Y-83680485D01*
X94148259Y-83632512D01*
X94131463Y-83564692D01*
X94153999Y-83498556D01*
X94199054Y-83459515D01*
X94207816Y-83455051D01*
X94293261Y-83392972D01*
X94379786Y-83330109D01*
X94379788Y-83330106D01*
X94379792Y-83330104D01*
X94530104Y-83179792D01*
X94530106Y-83179788D01*
X94530109Y-83179786D01*
X94655048Y-83007820D01*
X94655047Y-83007820D01*
X94655051Y-83007816D01*
X94751557Y-82818412D01*
X94817246Y-82616243D01*
X94850500Y-82406287D01*
X94850500Y-82193713D01*
X94817246Y-81983757D01*
X94751557Y-81781588D01*
X94655051Y-81592184D01*
X94655049Y-81592181D01*
X94655048Y-81592179D01*
X94530109Y-81420213D01*
X94416569Y-81306673D01*
X94383084Y-81245350D01*
X94388068Y-81175658D01*
X94429940Y-81119725D01*
X94460915Y-81102810D01*
X94592331Y-81053796D01*
X94707546Y-80967546D01*
X94793796Y-80852331D01*
X94844091Y-80717483D01*
X94850500Y-80657873D01*
X94850499Y-78862128D01*
X94844091Y-78802517D01*
X94793796Y-78667669D01*
X94793795Y-78667668D01*
X94793793Y-78667664D01*
X94707547Y-78552455D01*
X94707544Y-78552452D01*
X94592335Y-78466206D01*
X94592328Y-78466202D01*
X94457482Y-78415908D01*
X94457483Y-78415908D01*
X94397883Y-78409501D01*
X94397881Y-78409500D01*
X94397873Y-78409500D01*
X94397864Y-78409500D01*
X92602129Y-78409500D01*
X92602123Y-78409501D01*
X92542516Y-78415908D01*
X92407671Y-78466202D01*
X92407664Y-78466206D01*
X92292455Y-78552452D01*
X92292452Y-78552455D01*
X92206206Y-78667664D01*
X92206202Y-78667671D01*
X92155908Y-78802517D01*
X92149501Y-78862116D01*
X92149501Y-78862123D01*
X92149500Y-78862135D01*
X92149500Y-80657870D01*
X92149501Y-80657876D01*
X92155908Y-80717483D01*
X92206202Y-80852328D01*
X92206206Y-80852335D01*
X92292452Y-80967544D01*
X92292455Y-80967547D01*
X92407664Y-81053793D01*
X92407671Y-81053797D01*
X92539082Y-81102810D01*
X92595016Y-81144681D01*
X92619433Y-81210145D01*
X92604582Y-81278418D01*
X92583431Y-81306673D01*
X92469889Y-81420215D01*
X92344951Y-81592179D01*
X92248444Y-81781585D01*
X92182753Y-81983760D01*
X92149500Y-82193713D01*
X92149500Y-82406286D01*
X92182715Y-82616002D01*
X92182754Y-82616243D01*
X92204862Y-82684285D01*
X92248444Y-82818414D01*
X92344951Y-83007820D01*
X92469890Y-83179786D01*
X92620213Y-83330109D01*
X92792182Y-83455050D01*
X92800946Y-83459516D01*
X92851742Y-83507491D01*
X92868536Y-83575312D01*
X92845998Y-83641447D01*
X92800946Y-83680484D01*
X92792182Y-83684949D01*
X92620213Y-83809890D01*
X92469890Y-83960213D01*
X92344951Y-84132179D01*
X92248444Y-84321585D01*
X92182753Y-84523760D01*
X92149500Y-84733713D01*
X92149500Y-84946286D01*
X92182753Y-85156239D01*
X92248444Y-85358414D01*
X92344951Y-85547820D01*
X92469890Y-85719786D01*
X92620213Y-85870109D01*
X92792182Y-85995050D01*
X92800946Y-85999516D01*
X92851742Y-86047491D01*
X92868536Y-86115312D01*
X92845998Y-86181447D01*
X92800946Y-86220484D01*
X92792182Y-86224949D01*
X92620213Y-86349890D01*
X92469890Y-86500213D01*
X92344951Y-86672179D01*
X92248444Y-86861585D01*
X92182753Y-87063760D01*
X92176762Y-87101588D01*
X92149500Y-87273713D01*
X92149500Y-87486287D01*
X92182754Y-87696243D01*
X92214210Y-87793054D01*
X92216205Y-87862893D01*
X92180125Y-87922726D01*
X92117424Y-87953554D01*
X92096279Y-87955370D01*
X90637469Y-87955370D01*
X90570430Y-87935685D01*
X90549788Y-87919051D01*
X88996791Y-86366052D01*
X88996784Y-86366046D01*
X88902058Y-86302753D01*
X88902057Y-86302753D01*
X88873865Y-86283916D01*
X88873858Y-86283912D01*
X88737287Y-86227343D01*
X88737277Y-86227340D01*
X88592290Y-86198500D01*
X88592288Y-86198500D01*
X87152082Y-86198500D01*
X87152080Y-86198500D01*
X87007092Y-86227340D01*
X87007082Y-86227343D01*
X86870511Y-86283912D01*
X86870498Y-86283919D01*
X86747584Y-86366048D01*
X86747580Y-86366051D01*
X86350450Y-86763181D01*
X86289127Y-86796666D01*
X86262769Y-86799500D01*
X85862498Y-86799500D01*
X85862480Y-86799501D01*
X85759703Y-86810000D01*
X85759700Y-86810001D01*
X85593168Y-86865185D01*
X85593163Y-86865187D01*
X85443842Y-86957289D01*
X85319789Y-87081342D01*
X85227687Y-87230663D01*
X85227685Y-87230668D01*
X85203466Y-87303757D01*
X85172501Y-87397203D01*
X85172501Y-87397204D01*
X85172500Y-87397204D01*
X85162000Y-87499983D01*
X85162000Y-88500001D01*
X85162001Y-88500019D01*
X85172500Y-88602796D01*
X85172501Y-88602799D01*
X85189745Y-88654836D01*
X85227686Y-88769334D01*
X85319788Y-88918656D01*
X85443844Y-89042712D01*
X85589979Y-89132848D01*
X85636703Y-89184795D01*
X85647926Y-89253757D01*
X85620083Y-89317839D01*
X85612563Y-89326067D01*
X84728548Y-90210083D01*
X84706623Y-90242897D01*
X84684843Y-90275495D01*
X84665629Y-90304250D01*
X84646416Y-90333004D01*
X84646412Y-90333011D01*
X84589843Y-90469582D01*
X84589840Y-90469592D01*
X84561000Y-90614579D01*
X84561000Y-90614582D01*
X84561000Y-96279788D01*
X84561000Y-96279790D01*
X84560999Y-96279790D01*
X80000500Y-96279790D01*
X80000500Y-72624500D01*
X80020185Y-72557461D01*
X80072989Y-72511706D01*
X80124500Y-72500500D01*
X148375500Y-72500500D01*
X148442539Y-72520185D01*
G37*
%TD.AperFunction*%
%TD*%
M02*
