M48
; DRILL file {KiCad 9.0.6} date 2026-03-10T17:00:00-0700
; FORMAT={-:-/ absolute / metric / decimal}
; #@! TF.CreationDate,2026-03-10T17:00:00-07:00
; #@! TF.GenerationSoftware,Kicad,Pcbnew,9.0.6
; #@! TF.FileFunction,Plated,1,2,PTH
FMAT,2
METRIC
; #@! TA.AperFunction,Plated,PTH,ComponentDrill
T1C1.000
%
G90
G05
T1
X93.5Y-79.76
X93.5Y-82.3
X93.5Y-84.84
X93.5Y-87.38
X93.5Y-89.92
X93.5Y-92.46
X93.5Y-95.0
X93.5Y-97.54
X93.5Y-100.08
X93.5Y-102.62
X93.5Y-105.16
X93.5Y-107.7
X93.5Y-110.24
X93.5Y-112.78
X93.5Y-115.32
X118.9Y-79.76
X118.9Y-82.3
X118.9Y-84.84
X118.9Y-87.38
X118.9Y-89.92
X118.9Y-92.46
X118.9Y-95.0
X118.9Y-97.54
X118.9Y-100.08
X118.9Y-102.62
X118.9Y-105.16
X118.9Y-107.7
X118.9Y-110.24
X118.9Y-112.78
X118.9Y-115.32
X129.0Y-80.0
X129.0Y-82.54
X129.0Y-85.08
X129.0Y-87.62
X129.0Y-90.16
X129.0Y-92.7
X129.0Y-105.5
X129.0Y-108.04
M30
