%TF.GenerationSoftware,KiCad,Pcbnew,9.0.6*%
%TF.CreationDate,2026-01-29T23:50:48-08:00*%
%TF.ProjectId,PCB Warm-up,50434220-5761-4726-9d2d-75702e6b6963,rev?*%
%TF.SameCoordinates,Original*%
%TF.FileFunction,Soldermask,Top*%
%TF.FilePolarity,Negative*%
%FSLAX46Y46*%
G04 Gerber Fmt 4.6, Leading zero omitted, Abs format (unit mm)*
G04 Created by KiCad (PCBNEW 9.0.6) date 2026-01-29 23:50:48*
%MOMM*%
%LPD*%
G01*
G04 APERTURE LIST*
G04 Aperture macros list*
%AMRoundRect*
0 Rectangle with rounded corners*
0 $1 Rounding radius*
0 $2 $3 $4 $5 $6 $7 $8 $9 X,Y pos of 4 corners*
0 Add a 4 corners polygon primitive as box body*
4,1,4,$2,$3,$4,$5,$6,$7,$8,$9,$2,$3,0*
0 Add four circle primitives for the rounded corners*
1,1,$1+$1,$2,$3*
1,1,$1+$1,$4,$5*
1,1,$1+$1,$6,$7*
1,1,$1+$1,$8,$9*
0 Add four rect primitives between the rounded corners*
20,1,$1+$1,$2,$3,$4,$5,0*
20,1,$1+$1,$4,$5,$6,$7,0*
20,1,$1+$1,$6,$7,$8,$9,0*
20,1,$1+$1,$8,$9,$2,$3,0*%
G04 Aperture macros list end*
%ADD10RoundRect,0.250000X-0.262500X-0.450000X0.262500X-0.450000X0.262500X0.450000X-0.262500X0.450000X0*%
%ADD11RoundRect,0.375000X-0.625000X-0.375000X0.625000X-0.375000X0.625000X0.375000X-0.625000X0.375000X0*%
%ADD12RoundRect,0.500000X-0.500000X-1.400000X0.500000X-1.400000X0.500000X1.400000X-0.500000X1.400000X0*%
%ADD13RoundRect,0.212500X-0.737500X-0.212500X0.737500X-0.212500X0.737500X0.212500X-0.737500X0.212500X0*%
%ADD14RoundRect,0.212500X-0.212500X-0.737500X0.212500X-0.737500X0.212500X0.737500X-0.212500X0.737500X0*%
%ADD15R,4.800000X4.800000*%
%ADD16R,1.700000X1.700000*%
%ADD17C,1.700000*%
%ADD18RoundRect,0.250000X-0.250000X-0.475000X0.250000X-0.475000X0.250000X0.475000X-0.250000X0.475000X0*%
G04 APERTURE END LIST*
D10*
%TO.C,R4*%
X161675000Y-103500000D03*
X163500000Y-103500000D03*
%TD*%
%TO.C,R3*%
X161675000Y-113500000D03*
X163500000Y-113500000D03*
%TD*%
%TO.C,R2*%
X139475000Y-116350000D03*
X141300000Y-116350000D03*
%TD*%
%TO.C,R1*%
X139387500Y-107850000D03*
X141212500Y-107850000D03*
%TD*%
D11*
%TO.C,U1*%
X123850000Y-109200000D03*
X123850000Y-111500000D03*
D12*
X130150000Y-111500000D03*
D11*
X123850000Y-113800000D03*
%TD*%
D13*
%TO.C,U2*%
X148350000Y-109850000D03*
X148350000Y-111100000D03*
X148350000Y-112350000D03*
X148350000Y-113600000D03*
X148350000Y-114850000D03*
D14*
X150000000Y-116500000D03*
X151250000Y-116500000D03*
X152500000Y-116500000D03*
X153750000Y-116500000D03*
X155000000Y-116500000D03*
D13*
X156650000Y-114850000D03*
X156650000Y-113600000D03*
X156650000Y-112350000D03*
X156650000Y-111100000D03*
X156650000Y-109850000D03*
D14*
X155000000Y-108200000D03*
X153750000Y-108200000D03*
X152500000Y-108200000D03*
X151250000Y-108200000D03*
X150000000Y-108200000D03*
D15*
X152500000Y-112350000D03*
%TD*%
D16*
%TO.C,J2*%
X181500000Y-107880000D03*
D17*
X181500000Y-110420000D03*
X181500000Y-112960000D03*
X181500000Y-115500000D03*
%TD*%
D16*
%TO.C,J1*%
X101500000Y-111960000D03*
D17*
X101500000Y-114500000D03*
%TD*%
D18*
%TO.C,C3*%
X148900000Y-99850000D03*
X150800000Y-99850000D03*
%TD*%
%TO.C,C2*%
X129100000Y-101500000D03*
X131000000Y-101500000D03*
%TD*%
%TO.C,C1*%
X111100000Y-112500000D03*
X113000000Y-112500000D03*
%TD*%
M02*
