%TF.GenerationSoftware,KiCad,Pcbnew,9.0.6*%
%TF.CreationDate,2026-01-29T23:50:48-08:00*%
%TF.ProjectId,PCB Warm-up,50434220-5761-4726-9d2d-75702e6b6963,rev?*%
%TF.SameCoordinates,Original*%
%TF.FileFunction,Legend,Top*%
%TF.FilePolarity,Positive*%
%FSLAX46Y46*%
G04 Gerber Fmt 4.6, Leading zero omitted, Abs format (unit mm)*
G04 Created by KiCad (PCBNEW 9.0.6) date 2026-01-29 23:50:48*
%MOMM*%
%LPD*%
G01*
G04 APERTURE LIST*
%ADD10C,0.150000*%
%ADD11C,0.120000*%
G04 APERTURE END LIST*
D10*
X162833333Y-101534819D02*
X162500000Y-101058628D01*
X162261905Y-101534819D02*
X162261905Y-100534819D01*
X162261905Y-100534819D02*
X162642857Y-100534819D01*
X162642857Y-100534819D02*
X162738095Y-100582438D01*
X162738095Y-100582438D02*
X162785714Y-100630057D01*
X162785714Y-100630057D02*
X162833333Y-100725295D01*
X162833333Y-100725295D02*
X162833333Y-100868152D01*
X162833333Y-100868152D02*
X162785714Y-100963390D01*
X162785714Y-100963390D02*
X162738095Y-101011009D01*
X162738095Y-101011009D02*
X162642857Y-101058628D01*
X162642857Y-101058628D02*
X162261905Y-101058628D01*
X163690476Y-100868152D02*
X163690476Y-101534819D01*
X163452381Y-100487200D02*
X163214286Y-101201485D01*
X163214286Y-101201485D02*
X163833333Y-101201485D01*
X162333333Y-110534819D02*
X162000000Y-110058628D01*
X161761905Y-110534819D02*
X161761905Y-109534819D01*
X161761905Y-109534819D02*
X162142857Y-109534819D01*
X162142857Y-109534819D02*
X162238095Y-109582438D01*
X162238095Y-109582438D02*
X162285714Y-109630057D01*
X162285714Y-109630057D02*
X162333333Y-109725295D01*
X162333333Y-109725295D02*
X162333333Y-109868152D01*
X162333333Y-109868152D02*
X162285714Y-109963390D01*
X162285714Y-109963390D02*
X162238095Y-110011009D01*
X162238095Y-110011009D02*
X162142857Y-110058628D01*
X162142857Y-110058628D02*
X161761905Y-110058628D01*
X162666667Y-109534819D02*
X163285714Y-109534819D01*
X163285714Y-109534819D02*
X162952381Y-109915771D01*
X162952381Y-109915771D02*
X163095238Y-109915771D01*
X163095238Y-109915771D02*
X163190476Y-109963390D01*
X163190476Y-109963390D02*
X163238095Y-110011009D01*
X163238095Y-110011009D02*
X163285714Y-110106247D01*
X163285714Y-110106247D02*
X163285714Y-110344342D01*
X163285714Y-110344342D02*
X163238095Y-110439580D01*
X163238095Y-110439580D02*
X163190476Y-110487200D01*
X163190476Y-110487200D02*
X163095238Y-110534819D01*
X163095238Y-110534819D02*
X162809524Y-110534819D01*
X162809524Y-110534819D02*
X162714286Y-110487200D01*
X162714286Y-110487200D02*
X162666667Y-110439580D01*
X141333333Y-114454819D02*
X141000000Y-113978628D01*
X140761905Y-114454819D02*
X140761905Y-113454819D01*
X140761905Y-113454819D02*
X141142857Y-113454819D01*
X141142857Y-113454819D02*
X141238095Y-113502438D01*
X141238095Y-113502438D02*
X141285714Y-113550057D01*
X141285714Y-113550057D02*
X141333333Y-113645295D01*
X141333333Y-113645295D02*
X141333333Y-113788152D01*
X141333333Y-113788152D02*
X141285714Y-113883390D01*
X141285714Y-113883390D02*
X141238095Y-113931009D01*
X141238095Y-113931009D02*
X141142857Y-113978628D01*
X141142857Y-113978628D02*
X140761905Y-113978628D01*
X141714286Y-113550057D02*
X141761905Y-113502438D01*
X141761905Y-113502438D02*
X141857143Y-113454819D01*
X141857143Y-113454819D02*
X142095238Y-113454819D01*
X142095238Y-113454819D02*
X142190476Y-113502438D01*
X142190476Y-113502438D02*
X142238095Y-113550057D01*
X142238095Y-113550057D02*
X142285714Y-113645295D01*
X142285714Y-113645295D02*
X142285714Y-113740533D01*
X142285714Y-113740533D02*
X142238095Y-113883390D01*
X142238095Y-113883390D02*
X141666667Y-114454819D01*
X141666667Y-114454819D02*
X142285714Y-114454819D01*
X141333333Y-105454819D02*
X141000000Y-104978628D01*
X140761905Y-105454819D02*
X140761905Y-104454819D01*
X140761905Y-104454819D02*
X141142857Y-104454819D01*
X141142857Y-104454819D02*
X141238095Y-104502438D01*
X141238095Y-104502438D02*
X141285714Y-104550057D01*
X141285714Y-104550057D02*
X141333333Y-104645295D01*
X141333333Y-104645295D02*
X141333333Y-104788152D01*
X141333333Y-104788152D02*
X141285714Y-104883390D01*
X141285714Y-104883390D02*
X141238095Y-104931009D01*
X141238095Y-104931009D02*
X141142857Y-104978628D01*
X141142857Y-104978628D02*
X140761905Y-104978628D01*
X142285714Y-105454819D02*
X141714286Y-105454819D01*
X142000000Y-105454819D02*
X142000000Y-104454819D01*
X142000000Y-104454819D02*
X141904762Y-104597676D01*
X141904762Y-104597676D02*
X141809524Y-104692914D01*
X141809524Y-104692914D02*
X141714286Y-104740533D01*
X126238095Y-117954819D02*
X126238095Y-118764342D01*
X126238095Y-118764342D02*
X126285714Y-118859580D01*
X126285714Y-118859580D02*
X126333333Y-118907200D01*
X126333333Y-118907200D02*
X126428571Y-118954819D01*
X126428571Y-118954819D02*
X126619047Y-118954819D01*
X126619047Y-118954819D02*
X126714285Y-118907200D01*
X126714285Y-118907200D02*
X126761904Y-118859580D01*
X126761904Y-118859580D02*
X126809523Y-118764342D01*
X126809523Y-118764342D02*
X126809523Y-117954819D01*
X127809523Y-118954819D02*
X127238095Y-118954819D01*
X127523809Y-118954819D02*
X127523809Y-117954819D01*
X127523809Y-117954819D02*
X127428571Y-118097676D01*
X127428571Y-118097676D02*
X127333333Y-118192914D01*
X127333333Y-118192914D02*
X127238095Y-118240533D01*
X152738095Y-104954819D02*
X152738095Y-105764342D01*
X152738095Y-105764342D02*
X152785714Y-105859580D01*
X152785714Y-105859580D02*
X152833333Y-105907200D01*
X152833333Y-105907200D02*
X152928571Y-105954819D01*
X152928571Y-105954819D02*
X153119047Y-105954819D01*
X153119047Y-105954819D02*
X153214285Y-105907200D01*
X153214285Y-105907200D02*
X153261904Y-105859580D01*
X153261904Y-105859580D02*
X153309523Y-105764342D01*
X153309523Y-105764342D02*
X153309523Y-104954819D01*
X153738095Y-105050057D02*
X153785714Y-105002438D01*
X153785714Y-105002438D02*
X153880952Y-104954819D01*
X153880952Y-104954819D02*
X154119047Y-104954819D01*
X154119047Y-104954819D02*
X154214285Y-105002438D01*
X154214285Y-105002438D02*
X154261904Y-105050057D01*
X154261904Y-105050057D02*
X154309523Y-105145295D01*
X154309523Y-105145295D02*
X154309523Y-105240533D01*
X154309523Y-105240533D02*
X154261904Y-105383390D01*
X154261904Y-105383390D02*
X153690476Y-105954819D01*
X153690476Y-105954819D02*
X154309523Y-105954819D01*
X181166666Y-104454819D02*
X181166666Y-105169104D01*
X181166666Y-105169104D02*
X181119047Y-105311961D01*
X181119047Y-105311961D02*
X181023809Y-105407200D01*
X181023809Y-105407200D02*
X180880952Y-105454819D01*
X180880952Y-105454819D02*
X180785714Y-105454819D01*
X181595238Y-104550057D02*
X181642857Y-104502438D01*
X181642857Y-104502438D02*
X181738095Y-104454819D01*
X181738095Y-104454819D02*
X181976190Y-104454819D01*
X181976190Y-104454819D02*
X182071428Y-104502438D01*
X182071428Y-104502438D02*
X182119047Y-104550057D01*
X182119047Y-104550057D02*
X182166666Y-104645295D01*
X182166666Y-104645295D02*
X182166666Y-104740533D01*
X182166666Y-104740533D02*
X182119047Y-104883390D01*
X182119047Y-104883390D02*
X181547619Y-105454819D01*
X181547619Y-105454819D02*
X182166666Y-105454819D01*
X101166666Y-108454819D02*
X101166666Y-109169104D01*
X101166666Y-109169104D02*
X101119047Y-109311961D01*
X101119047Y-109311961D02*
X101023809Y-109407200D01*
X101023809Y-109407200D02*
X100880952Y-109454819D01*
X100880952Y-109454819D02*
X100785714Y-109454819D01*
X102166666Y-109454819D02*
X101595238Y-109454819D01*
X101880952Y-109454819D02*
X101880952Y-108454819D01*
X101880952Y-108454819D02*
X101785714Y-108597676D01*
X101785714Y-108597676D02*
X101690476Y-108692914D01*
X101690476Y-108692914D02*
X101595238Y-108740533D01*
X149683333Y-97859580D02*
X149635714Y-97907200D01*
X149635714Y-97907200D02*
X149492857Y-97954819D01*
X149492857Y-97954819D02*
X149397619Y-97954819D01*
X149397619Y-97954819D02*
X149254762Y-97907200D01*
X149254762Y-97907200D02*
X149159524Y-97811961D01*
X149159524Y-97811961D02*
X149111905Y-97716723D01*
X149111905Y-97716723D02*
X149064286Y-97526247D01*
X149064286Y-97526247D02*
X149064286Y-97383390D01*
X149064286Y-97383390D02*
X149111905Y-97192914D01*
X149111905Y-97192914D02*
X149159524Y-97097676D01*
X149159524Y-97097676D02*
X149254762Y-97002438D01*
X149254762Y-97002438D02*
X149397619Y-96954819D01*
X149397619Y-96954819D02*
X149492857Y-96954819D01*
X149492857Y-96954819D02*
X149635714Y-97002438D01*
X149635714Y-97002438D02*
X149683333Y-97050057D01*
X150016667Y-96954819D02*
X150635714Y-96954819D01*
X150635714Y-96954819D02*
X150302381Y-97335771D01*
X150302381Y-97335771D02*
X150445238Y-97335771D01*
X150445238Y-97335771D02*
X150540476Y-97383390D01*
X150540476Y-97383390D02*
X150588095Y-97431009D01*
X150588095Y-97431009D02*
X150635714Y-97526247D01*
X150635714Y-97526247D02*
X150635714Y-97764342D01*
X150635714Y-97764342D02*
X150588095Y-97859580D01*
X150588095Y-97859580D02*
X150540476Y-97907200D01*
X150540476Y-97907200D02*
X150445238Y-97954819D01*
X150445238Y-97954819D02*
X150159524Y-97954819D01*
X150159524Y-97954819D02*
X150064286Y-97907200D01*
X150064286Y-97907200D02*
X150016667Y-97859580D01*
X129833333Y-99359580D02*
X129785714Y-99407200D01*
X129785714Y-99407200D02*
X129642857Y-99454819D01*
X129642857Y-99454819D02*
X129547619Y-99454819D01*
X129547619Y-99454819D02*
X129404762Y-99407200D01*
X129404762Y-99407200D02*
X129309524Y-99311961D01*
X129309524Y-99311961D02*
X129261905Y-99216723D01*
X129261905Y-99216723D02*
X129214286Y-99026247D01*
X129214286Y-99026247D02*
X129214286Y-98883390D01*
X129214286Y-98883390D02*
X129261905Y-98692914D01*
X129261905Y-98692914D02*
X129309524Y-98597676D01*
X129309524Y-98597676D02*
X129404762Y-98502438D01*
X129404762Y-98502438D02*
X129547619Y-98454819D01*
X129547619Y-98454819D02*
X129642857Y-98454819D01*
X129642857Y-98454819D02*
X129785714Y-98502438D01*
X129785714Y-98502438D02*
X129833333Y-98550057D01*
X130214286Y-98550057D02*
X130261905Y-98502438D01*
X130261905Y-98502438D02*
X130357143Y-98454819D01*
X130357143Y-98454819D02*
X130595238Y-98454819D01*
X130595238Y-98454819D02*
X130690476Y-98502438D01*
X130690476Y-98502438D02*
X130738095Y-98550057D01*
X130738095Y-98550057D02*
X130785714Y-98645295D01*
X130785714Y-98645295D02*
X130785714Y-98740533D01*
X130785714Y-98740533D02*
X130738095Y-98883390D01*
X130738095Y-98883390D02*
X130166667Y-99454819D01*
X130166667Y-99454819D02*
X130785714Y-99454819D01*
X111833333Y-109859580D02*
X111785714Y-109907200D01*
X111785714Y-109907200D02*
X111642857Y-109954819D01*
X111642857Y-109954819D02*
X111547619Y-109954819D01*
X111547619Y-109954819D02*
X111404762Y-109907200D01*
X111404762Y-109907200D02*
X111309524Y-109811961D01*
X111309524Y-109811961D02*
X111261905Y-109716723D01*
X111261905Y-109716723D02*
X111214286Y-109526247D01*
X111214286Y-109526247D02*
X111214286Y-109383390D01*
X111214286Y-109383390D02*
X111261905Y-109192914D01*
X111261905Y-109192914D02*
X111309524Y-109097676D01*
X111309524Y-109097676D02*
X111404762Y-109002438D01*
X111404762Y-109002438D02*
X111547619Y-108954819D01*
X111547619Y-108954819D02*
X111642857Y-108954819D01*
X111642857Y-108954819D02*
X111785714Y-109002438D01*
X111785714Y-109002438D02*
X111833333Y-109050057D01*
X112785714Y-109954819D02*
X112214286Y-109954819D01*
X112500000Y-109954819D02*
X112500000Y-108954819D01*
X112500000Y-108954819D02*
X112404762Y-109097676D01*
X112404762Y-109097676D02*
X112309524Y-109192914D01*
X112309524Y-109192914D02*
X112214286Y-109240533D01*
D11*
%TO.C,R4*%
X162360436Y-102765000D02*
X162814564Y-102765000D01*
X162360436Y-104235000D02*
X162814564Y-104235000D01*
%TO.C,R3*%
X162360436Y-112765000D02*
X162814564Y-112765000D01*
X162360436Y-114235000D02*
X162814564Y-114235000D01*
%TO.C,R2*%
X140160436Y-115615000D02*
X140614564Y-115615000D01*
X140160436Y-117085000D02*
X140614564Y-117085000D01*
%TO.C,R1*%
X140072936Y-107115000D02*
X140527064Y-107115000D01*
X140072936Y-108585000D02*
X140527064Y-108585000D01*
%TO.C,U1*%
X125150000Y-108090000D02*
X128910000Y-108090000D01*
X125150000Y-114910000D02*
X128910000Y-114910000D01*
X128910000Y-108090000D02*
X128910000Y-109350000D01*
X128910000Y-114910000D02*
X128910000Y-113650000D01*
X123870000Y-108190000D02*
X123630000Y-107860000D01*
X124110000Y-107860000D01*
X123870000Y-108190000D01*
G36*
X123870000Y-108190000D02*
G01*
X123630000Y-107860000D01*
X124110000Y-107860000D01*
X123870000Y-108190000D01*
G37*
%TO.C,U2*%
X147340000Y-107190000D02*
X149315000Y-107190000D01*
X147340000Y-109165000D02*
X147340000Y-107190000D01*
X147340000Y-117510000D02*
X147340000Y-115535000D01*
X149315000Y-117510000D02*
X147340000Y-117510000D01*
X155685000Y-107190000D02*
X157660000Y-107190000D01*
X157660000Y-107190000D02*
X157660000Y-109165000D01*
X157660000Y-115535000D02*
X157660000Y-117510000D01*
X157660000Y-117510000D02*
X155685000Y-117510000D01*
X147140000Y-109850000D02*
X146810000Y-110090000D01*
X146810000Y-109610000D01*
X147140000Y-109850000D01*
G36*
X147140000Y-109850000D02*
G01*
X146810000Y-110090000D01*
X146810000Y-109610000D01*
X147140000Y-109850000D01*
G37*
%TO.C,J2*%
X180120000Y-106500000D02*
X181500000Y-106500000D01*
X180120000Y-107880000D02*
X180120000Y-106500000D01*
X180120000Y-109150000D02*
X180120000Y-116880000D01*
X180120000Y-109150000D02*
X182880000Y-109150000D01*
X180120000Y-116880000D02*
X182880000Y-116880000D01*
X182880000Y-109150000D02*
X182880000Y-116880000D01*
%TO.C,J1*%
X100120000Y-110580000D02*
X101500000Y-110580000D01*
X100120000Y-111960000D02*
X100120000Y-110580000D01*
X100120000Y-113230000D02*
X100120000Y-115880000D01*
X100120000Y-113230000D02*
X102880000Y-113230000D01*
X100120000Y-115880000D02*
X102880000Y-115880000D01*
X102880000Y-113230000D02*
X102880000Y-115880000D01*
%TO.C,C3*%
X149588748Y-99115000D02*
X150111252Y-99115000D01*
X149588748Y-100585000D02*
X150111252Y-100585000D01*
%TO.C,C2*%
X129788748Y-100765000D02*
X130311252Y-100765000D01*
X129788748Y-102235000D02*
X130311252Y-102235000D01*
%TO.C,C1*%
X111788748Y-111765000D02*
X112311252Y-111765000D01*
X111788748Y-113235000D02*
X112311252Y-113235000D01*
%TD*%
M02*
